<?xml version="1.0" encoding="UTF-8" standalone="no"?>
<!-- Created with Inkscape (http://www.inkscape.org/) -->

<svg
   width="25.199362mm"
   height="29.4021mm"
   viewBox="0 0 25.199362 29.4021"
   version="1.1"
   id="svg1"
   xml:space="preserve"
   inkscape:export-filename="pozo.svg"
   inkscape:export-xdpi="96"
   inkscape:export-ydpi="96"
   xmlns:inkscape="http://www.inkscape.org/namespaces/inkscape"
   xmlns:sodipodi="http://sodipodi.sourceforge.net/DTD/sodipodi-0.dtd"
   xmlns="http://www.w3.org/2000/svg"
   xmlns:svg="http://www.w3.org/2000/svg"><sodipodi:namedview
     id="namedview1"
     pagecolor="#505050"
     bordercolor="#ffffff"
     borderopacity="1"
     inkscape:showpageshadow="0"
     inkscape:pageopacity="0"
     inkscape:pagecheckerboard="1"
     inkscape:deskcolor="#505050"
     inkscape:document-units="px"><inkscape:page
       x="0"
       y="0"
       width="25.199362"
       height="29.4021"
       id="page2"
       margin="0"
       bleed="0" /></sodipodi:namedview><defs
     id="defs1" /><g
     inkscape:label="Capa 1"
     inkscape:groupmode="layer"
     id="layer1"
     transform="translate(8.6564756,-13.159556)"><g
       id="g120"
       transform="translate(0.09110468,0.45552148)"><path
         style="fill:#e8e8e8"
         d="m 1.939342,36.734162 c 0,-3.338504 0.010215,-3.880352 0.078267,-4.151731 0.2182268,-0.870248 0.8677352,-1.512606 1.6086612,-1.59095 l 0.3013596,-0.03186 -0.205066,0.216037 C 3.4381931,31.475238 3.1435974,32.00923 3.0124486,32.462825 2.9030068,32.841344 2.9018177,32.881447 2.8865368,36.709366 L 2.8711101,40.57378 H 2.4052261 1.939342 Z M -2.9690397,25.374711 c 7.68e-5,-0.442468 0.00781,-0.615882 0.01719,-0.385364 0.00938,0.230518 0.00931,0.592537 -1.398e-4,0.804487 -0.00945,0.211951 -0.017127,0.02334 -0.01705,-0.419123 z m -3.2718075,-2.356 c 0.063655,-0.07901 0.1268239,-0.143658 0.1403754,-0.143658 0.013552,0 -0.027442,0.06465 -0.091097,0.143658 -0.063655,0.07901 -0.1268238,0.143659 -0.1403754,0.143659 -0.013552,0 0.027442,-0.06465 0.091097,-0.143659 z m 17.3208812,-0.65307 c -0.254704,-0.13493 -0.503167,-0.466716 -0.545211,-0.728051 -0.05814,-0.361424 0.0015,-0.750765 0.149662,-0.977316 0.149962,-0.229267 0.172519,-0.219451 0.269694,0.117365 0.152025,0.526925 0.479932,0.917468 0.962252,1.146058 l 0.271226,0.128545 -0.110768,0.121346 c -0.268522,0.294163 -0.661268,0.369829 -0.996855,0.192053 z m 5.112154,-0.69732 c 0,-0.110617 0.01014,-0.155869 0.02254,-0.100561 0.01239,0.05531 0.01239,0.145814 0,0.201122 -0.01239,0.05531 -0.02254,0.01006 -0.02254,-0.100561 z m 0,-0.402243 c 0,-0.110617 0.01014,-0.15587 0.02254,-0.100561 0.01239,0.05531 0.01239,0.145813 0,0.201122 -0.01239,0.05531 -0.02254,0.01006 -0.02254,-0.100561 z M -0.90736372,20.2892 c 0,-0.110617 0.0101412,-0.15587 0.0225361,-0.100561 0.0123948,0.05531 0.0123948,0.145813 0,0.201122 -0.0123948,0.05531 -0.0225361,0.01006 -0.0225361,-0.100561 z M 11.490082,20.192482 c 0.03557,-0.0166 0.07808,-0.01456 0.09445,0.0045 0.01638,0.0191 -0.01273,0.03268 -0.06468,0.03018 -0.05741,-0.0028 -0.06908,-0.01637 -0.02977,-0.03472 z m 3.261604,-2.747721 c -0.119698,-0.142221 -0.206545,-0.258585 -0.192994,-0.258585 0.01355,0 0.122574,0.116364 0.242273,0.258585 0.119698,0.142222 0.206545,0.258586 0.192994,0.258586 -0.01355,0 -0.122574,-0.116364 -0.242273,-0.258586 z m -6.8448128,0.186757 c 0.011709,-0.0079 0.1207372,-0.1178 0.2422847,-0.24422 l 0.2209955,-0.229854 -0.1947944,0.24422 c -0.1071369,0.134321 -0.216165,0.244219 -0.2422847,0.244219 -0.02612,0 -0.03791,-0.0065 -0.026201,-0.01437 z M 0.46099454,16.58281 c 0.063655,-0.07901 0.12682388,-0.143658 0.1403754,-0.143658 0.0135515,0 -0.0274422,0.06465 -0.0910971,0.143658 -0.063655,0.07901 -0.12682389,0.143659 -0.1403754,0.143659 -0.0135515,0 0.0274422,-0.06465 0.0910971,-0.143659 z m 6.72179886,-0.0431 -0.093875,-0.129293 0.1108761,0.109467 c 0.1041961,0.102872 0.1333095,0.149119 0.093874,0.149119 -0.00935,0 -0.059245,-0.05818 -0.1108751,-0.129293 z m 4.0085396,-0.713252 c 0.03388,-0.01594 0.08932,-0.01594 0.123196,0 0.03388,0.01594 0.0062,0.02898 -0.0616,0.02898 -0.06776,0 -0.09548,-0.01304 -0.0616,-0.02898 z m 0.394226,0 c 0.03388,-0.01594 0.08932,-0.01594 0.123196,0 0.03388,0.01594 0.0062,0.02898 -0.0616,0.02898 -0.06776,0 -0.09548,-0.01304 -0.0616,-0.02898 z M 3.1920835,13.853299 c 0,-0.6479 0.00719,-0.91295 0.01597,-0.589 0.00878,0.32395 0.00878,0.85405 0,1.178 -0.00878,0.32395 -0.01597,0.0589 -0.01597,-0.589 z m 1.3305127,0 c 0,-0.6479 0.00719,-0.91295 0.01597,-0.589 0.00878,0.32395 0.00878,0.85405 0,1.178 -0.00878,0.32395 -0.01597,0.0589 -0.01597,-0.589 z"
         id="path138" /><path
         style="fill:#fdeac0"
         d="m -7.4235252,34.137879 v -6.435901 h 2.5624689 2.5624689 v 6.435901 6.435901 H -3.2595132 -4.220439 v -2.846106 -2.846106 l -0.6529368,0.01603 -0.6529368,0.01603 -0.012784,2.830073 -0.012784,2.830072 H -6.4877028 -7.4235252 Z M -4.220439,32.95988 v -0.718293 h -0.6652564 -0.6652563 v 0.718293 0.718292 h 0.6652563 0.6652564 z m 14.241414,1.524982 v -6.088919 l 0.52206,0.489716 c 0.556483,0.522005 0.673634,0.597685 0.925208,0.597685 0.25815,0 0.79726,-0.455759 1.613459,-1.364005 l 0.375063,-0.417361 h 0.844574 0.844573 v 6.435901 6.435901 H 14.21009 13.274268 l -0.01278,-2.830072 -0.01278,-2.830073 -0.652937,-0.01603 -0.652937,-0.01603 v 2.846106 2.846106 h -0.960925 -0.960926 z m 3.252364,-1.524982 v -0.718293 h -0.665256 -0.665257 v 0.718293 0.718292 h 0.665257 0.665256 z"
         id="path137" /><path
         style="fill:#fde297"
         d="M -0.03178794,31.810612 V 23.047443 H 3.411512 6.8548119 l 0.1583895,0.528921 c 0.2756881,0.920624 0.7149314,1.831664 1.3139058,2.725187 l 0.3633548,0.542036 v 6.865097 6.865096 H 7.90201 7.113558 L 7.1127024,36.680635 C 7.1117409,32.306003 7.1132048,32.327671 6.7625978,31.498308 6.3672863,30.563196 5.497677,29.748731 4.6440258,29.51408 4.2747631,29.412578 3.5326291,29.399615 3.1614042,29.488183 3.0177792,29.52245 2.6896033,29.667914 2.4321245,29.811436 1.8008751,30.163302 1.2642372,30.778135 0.95978948,31.498308 0.60918256,32.327671 0.6106464,32.306003 0.60968493,36.680635 L 0.60882928,40.57378 H 0.28852067 -0.03178794 Z M 1.8407855,26.236662 V 25.116125 H 1.1755291 0.51027279 v 1.120537 1.120536 H 1.1755291 1.8407855 Z M 4.5398336,26.251028 4.52645,25.144857 H 3.8611937 3.1959373 l -0.013384,1.106171 -0.013384,1.10617 h 0.6920236 0.6920235 z m 2.6722809,-0.01437 V 25.116125 H 6.5468582 5.8816018 v 1.120537 1.120536 h 0.6652564 0.6652563 z m -12.4057989,8.663093 c 0.1829455,-0.01106 0.4823108,-0.01106 0.6652563,0 0.1829455,0.01106 0.033263,0.0201 -0.3326282,0.0201 -0.3658909,0 -0.5155736,-0.009 -0.3326281,-0.0201 z m 17.4444994,0 c 0.182946,-0.01106 0.482311,-0.01106 0.665257,0 0.182945,0.01106 0.03326,0.0201 -0.332628,0.0201 -0.365891,0 -0.515574,-0.009 -0.332629,-0.0201 z"
         id="path136" /><path
         style="fill:#eecf8a"
         d="m -0.96807466,31.810612 v -8.763169 h 0.46814336 0.46814336 v 8.763169 8.763168 H -0.4999313 -0.96807466 Z M 3.1919251,26.265393 c 0,-0.616295 0.00725,-0.868415 0.01611,-0.560268 0.00886,0.308148 0.00886,0.812389 0,1.120537 -0.00886,0.308147 -0.01611,0.05603 -0.01611,-0.560269 z m 1.3305127,0 c 0,-0.616295 0.00725,-0.868415 0.01611,-0.560268 0.00886,0.308148 0.00886,0.812389 0,1.120537 -0.00886,0.308147 -0.01611,0.05603 -0.01611,-0.560269 z"
         id="path135" /><path
         style="fill:#c8ba9b"
         d="m -7.4500798,40.559414 c -0.012904,-0.03951 -0.017654,-2.955055 -0.010557,-6.478998 l 0.012905,-6.407169 0.012103,6.449026 0.012103,6.449025 0.9486063,0.01692 0.9486063,0.01692 -0.9501529,0.01305 c -0.7231649,0.0099 -0.9557577,-0.0041 -0.9736143,-0.05878 z m 3.712725,0.02894 c 0.2792478,-0.01026 0.7227521,-0.01022 0.9855649,9.2e-5 0.2628129,0.01031 0.034337,0.01871 -0.5077233,0.01866 -0.5420607,-5.1e-5 -0.7570895,-0.0085 -0.4778416,-0.01875 z m 3.83998292,0.0014 c 0.0874804,-0.01269 0.24270684,-0.0129 0.34494774,-4.63e-4 0.1022409,0.01244 0.0306661,0.02283 -0.15905519,0.02308 -0.18972126,2.55e-4 -0.2733729,-0.0099 -0.18589255,-0.02262 z m 2.78532018,-0.0016 c 0.5352849,-0.0093 1.4112058,-0.0093 1.9464908,0 0.5352849,0.0093 0.097325,0.01687 -0.9732454,0.01687 -1.07057,0 -1.5085304,-0.0076 -0.9732454,-0.01687 z m 4.6075162,2.73e-4 c 0.2236,-0.01065 0.589491,-0.01065 0.813091,0 0.2236001,0.01065 0.040655,0.01936 -0.4065455,0.01936 -0.4472001,0 -0.6301456,-0.0087 -0.4065455,-0.01936 z m 3.0085945,-1.42e-4 c 0.279248,-0.01026 0.722752,-0.01022 0.985565,9.2e-5 0.262813,0.01031 0.03434,0.01871 -0.507723,0.01866 -0.542061,-5.1e-5 -0.75709,-0.0085 -0.477842,-0.01875 z m 3.693035,5.19e-4 0.948394,-0.01757 0.01285,-6.434662 0.01285,-6.434663 -3.2e-4,6.450268 -3.2e-4,6.450269 -0.960926,0.002 -0.960926,0.002 z m -10.34514,-9.65073 c 0.035573,-0.0166 0.078075,-0.01456 0.09445,0.0045 0.016375,0.01909 -0.01273,0.03268 -0.064678,0.03018 -0.057406,-0.0028 -0.069083,-0.01637 -0.029772,-0.03472 z m 8.928603,-2.510831 c 0,-0.01193 0.03881,-0.05719 0.08624,-0.100561 0.07816,-0.07148 0.0799,-0.06944 0.01861,0.0217 -0.06438,0.09572 -0.104842,0.126159 -0.104842,0.07887 z M -5.5311178,21.610858 c 0,-0.489875 0.00756,-0.690279 0.016795,-0.445341 0.00924,0.244937 0.00924,0.645745 0,0.890682 -0.00924,0.244938 -0.016795,0.04453 -0.016795,-0.445341 z m 16.2849808,0.531536 c -0.0613,-0.09114 -0.05955,-0.09317 0.0186,-0.0217 0.08208,0.07507 0.108189,0.122256 0.06763,0.122256 -0.01023,0 -0.04904,-0.04525 -0.08624,-0.100561 z m 1.28752,0.07887 c 0,-0.01193 0.03881,-0.05719 0.08624,-0.100561 0.07816,-0.07148 0.0799,-0.06944 0.0186,0.0217 -0.06438,0.09572 -0.104842,0.12616 -0.104842,0.07887 z M -0.90103177,20.978761 c 0,-0.300247 0.008306,-0.423075 0.0184568,-0.272952 0.0101512,0.150124 0.0101512,0.39578 0,0.545903 -0.0101513,0.150123 -0.0184568,0.02729 -0.0184568,-0.272951 z M 12.395937,21.352273 c 10e-4,-0.09482 0.01205,-0.126646 0.02454,-0.07074 0.01249,0.05591 0.01167,0.133486 -0.0018,0.17239 -0.0135,0.0389 -0.02372,-0.0068 -0.02272,-0.101654 z m -1.923677,-0.02873 c 0,-0.07901 0.01118,-0.111335 0.02486,-0.07183 0.01367,0.03951 0.01367,0.104152 0,0.143658 -0.01367,0.03951 -0.02486,0.0072 -0.02486,-0.07183 z m 0.916186,-5.49708 c 0.03388,-0.01594 0.08932,-0.01594 0.123196,0 0.03388,0.01594 0.0062,0.02898 -0.0616,0.02898 -0.06776,0 -0.09548,-0.01304 -0.0616,-0.02898 z"
         id="path134" /><path
         style="fill:#a39d91"
         d="m -5.528115,37.758073 c 0,-1.564441 0.00634,-2.204439 0.014082,-1.422219 0.00774,0.782221 0.00774,2.062218 0,2.844439 -0.00774,0.78222 -0.014082,0.142221 -0.014082,-1.42222 z m 18.775013,0 c 0,-1.564441 0.0063,-2.204439 0.01408,-1.422219 0.0077,0.782221 0.0077,2.062218 0,2.844439 -0.0077,0.78222 -0.01408,0.142221 -0.01408,-1.42222 z M -5.5321391,32.95988 c 9.75e-5,-0.379259 0.00807,-0.526932 0.017723,-0.328163 0.00965,0.198769 0.00957,0.509071 -1.772e-4,0.689561 -0.00975,0.180489 -0.017643,0.01786 -0.017546,-0.361398 z m 18.7750121,0 c 9.8e-5,-0.379259 0.0081,-0.526932 0.01772,-0.328163 0.0097,0.198769 0.0096,0.509071 -1.77e-4,0.689561 -0.0097,0.180489 -0.01764,0.01786 -0.01755,-0.361398 z M 3.7041192,30.938138 c 0.035573,-0.0166 0.078075,-0.01456 0.09445,0.0045 0.016375,0.01909 -0.01273,0.03268 -0.064678,0.03018 -0.057406,-0.0028 -0.069083,-0.01637 -0.029772,-0.03472 z m 0.2956695,0 c 0.035573,-0.0166 0.078075,-0.01456 0.09445,0.0045 0.016375,0.01909 -0.01273,0.03268 -0.064678,0.03018 -0.057406,-0.0028 -0.069083,-0.01637 -0.029772,-0.03472 z m -10.154399,-3.279215 c 0.7114547,-0.009 1.8756533,-0.009 2.5871081,0 0.7114547,0.009 0.1293554,0.01632 -1.2935541,0.01632 -1.4229094,0 -2.0050087,-0.0073 -1.293554,-0.01632 z m 20.0316083,2.7e-4 c 0.237151,-0.01053 0.625217,-0.01053 0.862369,0 0.237151,0.01053 0.04312,0.01915 -0.431185,0.01915 -0.474303,0 -0.668336,-0.0086 -0.431184,-0.01915 z M -6.763074,25.288516 c 0,-0.489876 0.00756,-0.690279 0.016795,-0.445342 0.00924,0.244938 0.00924,0.645745 0,0.890683 -0.00924,0.244938 -0.016795,0.04453 -0.016795,-0.445341 z"
         id="path133" /><path
         style="fill:#ed4188"
         d="M 10.907983,26.16839 C 9.9552825,25.276289 8.8134745,23.820159 8.3255496,22.875053 8.1312305,22.498658 8.0963289,22.379855 8.049965,21.936971 7.9161755,20.658969 8.2670042,19.508882 9.0802268,18.559567 c 0.3398312,-0.396702 0.5059414,-0.54115 0.8421914,-0.732365 0.5591258,-0.317957 0.9559958,-0.429553 1.5276258,-0.429553 0.57163,0 0.9685,0.111596 1.527626,0.429553 0.757868,0.430975 1.451255,1.374072 1.719859,2.339232 0.149871,0.538523 0.206445,1.18238 0.152424,1.734704 -0.04025,0.411537 -0.07416,0.522934 -0.271746,0.892593 -0.396086,0.741051 -0.908453,1.466891 -1.621333,2.296847 -0.718981,0.837058 -1.4016,1.520854 -1.515276,1.517887 -0.03601,-9.4e-4 -0.276136,-0.198974 -0.533615,-0.440075 z m 1.080787,-2.232891 c 1.020955,-0.280618 1.728073,-1.349798 1.728073,-2.612891 0,-0.794227 -0.252858,-1.459353 -0.756709,-1.990468 -1.042773,-1.099199 -2.653726,-0.832974 -3.4341433,0.567523 -0.2610663,0.468496 -0.3597532,0.942505 -0.3342196,1.605308 0.018233,0.473302 0.042013,0.588385 0.2008517,0.972044 0.4816937,1.16348 1.5289452,1.751813 2.5961472,1.458484 z"
         id="path132" /><path
         style="fill:#aa9a6e"
         d="m -0.73235108,40.588812 c 0.14319948,-0.01164 0.3649516,-0.01152 0.49278248,2.72e-4 0.12783088,0.01179 0.0106677,0.02132 -0.2603627,0.02117 -0.27103036,-1.5e-4 -0.37561927,-0.0098 -0.23241978,-0.02144 z m 1.34507075,-7.691185 c 0.002365,-0.06694 0.0140414,-0.08056 0.0297723,-0.03472 0.014235,0.04148 0.0124844,0.09104 -0.00389,0.110138 -0.0163747,0.0191 -0.0280216,-0.01485 -0.0258819,-0.07542 z m 6.45545053,0 c 0.00236,-0.06694 0.014041,-0.08056 0.029772,-0.03472 0.014235,0.04148 0.012484,0.09104 -0.00389,0.110138 -0.016375,0.0191 -0.028022,-0.01485 -0.025882,-0.07542 z M 5.9738726,30.359661 c -0.061296,-0.09114 -0.059553,-0.09317 0.018605,-0.0217 0.082085,0.07507 0.1081893,0.122257 0.067632,0.122257 -0.010233,0 -0.04904,-0.04525 -0.086237,-0.100561 z M 1.8026438,26.281427 1.7915072,25.176925 1.1385704,25.159073 0.48563366,25.141222 1.140117,25.128674 c 0.4948656,-0.0095 0.6603965,0.0054 0.6787291,0.06113 0.013335,0.04052 0.017651,0.551229 0.00959,1.134903 l -0.014656,1.061224 z m 4.1020012,-0.04477 0.0016,-1.091805 0.653007,-0.0026 0.653007,-0.0026 -0.6396284,0.01863 -0.6396284,0.01863 -0.014975,1.07578 -0.014975,1.075779 z m -2.3760795,-1.10568 c 0.1829455,-0.01106 0.4823108,-0.01106 0.6652563,0 0.1829455,0.01106 0.033263,0.0201 -0.3326281,0.0201 -0.365891,0 -0.5155737,-0.009 -0.3326282,-0.0201 z m -0.5790194,-2.083534 -3.94225988,-0.02976 3.92703208,-0.01385 c 2.5777521,-0.0091 3.9374962,0.0059 3.9574876,0.04361 0.016751,0.0316 0.023603,0.05123 0.015228,0.04361 -0.00838,-0.0076 -1.7892447,-0.02724 -3.9574878,-0.04361 z"
         id="path131" /><path
         style="fill:#b8895b"
         d="m -5.4523952,25.311566 c 0,-0.958474 0.049624,-1.162342 0.3192443,-1.311537 0.2046322,-0.113233 0.3360637,-0.114443 0.5179416,-0.0048 0.274523,0.165541 0.2962138,0.25697 0.2962138,1.248577 v 0.906629 h -0.5666999 -0.5666998 z m 6.4558227,-4.059854 c 0.00159,-1.043251 0.4484577,-2.304959 1.1126594,-3.14154 0.2656516,-0.334596 0.8107227,-0.808579 1.1784069,-1.024719 0.3366204,-0.19788 1.0187796,-0.422173 1.3128967,-0.431679 0.2453893,-0.0079 0.3421162,0.02636 0.7651105,0.271221 0.6518898,0.377367 1.2289933,1.033226 1.532579,1.741725 l 0.2035053,0.474934 -0.115106,0.358285 c -0.136612,0.425226 -0.2571691,1.071035 -0.300196,1.608114 l -0.031074,0.387878 h -2.829577 -2.829577 z"
         id="path130" /><path
         style="fill:#db3b75"
         d="M 10.931723,27.246855 C 9.727445,26.019159 8.7438438,24.530252 8.3496529,23.338298 8.0954569,22.56966 8.1123175,22.516494 8.4327805,23.076175 c 0.3619871,0.632202 1.0927608,1.632463 1.6171035,2.213443 0.475415,0.526769 1.315361,1.320556 1.397346,1.320556 0.09036,0 0.749178,-0.644092 1.351869,-1.321658 0.640493,-0.720065 1.211167,-1.50182 1.623252,-2.223663 0.165938,-0.29067 0.310181,-0.518608 0.320541,-0.506527 0.03379,0.0394 -0.147456,0.622181 -0.345275,1.110185 -0.237539,0.585987 -0.715865,1.416795 -1.194078,2.074001 -0.365215,0.501913 -1.388875,1.681081 -1.641435,1.890791 l -0.138499,0.115 z M 8.0044569,21.749728 c 0.00236,-0.06694 0.014041,-0.08056 0.029772,-0.03472 0.014235,0.04148 0.012484,0.09104 -0.00389,0.110139 -0.016375,0.01909 -0.028022,-0.01485 -0.025882,-0.07542 z m 6.8496761,-0.05746 c 0.0024,-0.06694 0.01404,-0.08056 0.02977,-0.03472 0.01424,0.04148 0.01248,0.09104 -0.0039,0.110138 -0.01637,0.0191 -0.02802,-0.01485 -0.02588,-0.07542 z m 0,-0.51717 c 0.0024,-0.06694 0.01404,-0.08056 0.02977,-0.03472 0.01424,0.04148 0.01248,0.09104 -0.0039,0.110139 -0.01637,0.01909 -0.02802,-0.01485 -0.02588,-0.07542 z m -5.8433624,-2.6098 c 0.1058616,-0.12642 0.2035633,-0.229854 0.2171148,-0.229854 0.013552,0 -0.061975,0.103434 -0.1678366,0.229854 -0.1058616,0.126419 -0.2035633,0.229853 -0.2171148,0.229853 -0.013552,0 0.061975,-0.103434 0.1678366,-0.229853 z m 4.8019764,-0.0431 -0.169821,-0.215488 0.184793,0.198029 c 0.101637,0.108916 0.184794,0.205885 0.184794,0.215488 0,0.04388 -0.0417,0.0025 -0.199766,-0.198029 z m -2.44894,0.118414 c 0.04743,-0.01445 0.125043,-0.01445 0.172474,0 0.04743,0.01445 0.0086,0.02628 -0.08624,0.02628 -0.09486,0 -0.133667,-0.01183 -0.08624,-0.02628 z"
         id="path129" /><path
         style="fill:#727272"
         d="m 5.8063099,36.838659 c 0,-2.101724 0.00615,-2.96152 0.013671,-1.910658 0.00752,1.050862 0.00752,2.770454 0,3.821316 -0.00752,1.050862 -0.013671,0.191066 -0.013671,-1.910658 z m -3.8930011,0 c 0,-2.070119 0.00616,-2.916986 0.01369,-1.881926 0.00753,1.035059 0.00753,2.728793 0,3.763852 -0.00753,1.03506 -0.01369,0.188193 -0.01369,-1.881926 z m -4.1897121,-12.67068 c 1.69e-5,-1.10617 0.00664,-1.550562 0.014713,-0.987537 0.00807,0.563025 0.00806,1.468074 -3.07e-5,2.011219 -0.00809,0.543146 -0.014699,0.08249 -0.014682,-1.023682 z"
         id="path128" /><path
         style="fill:#95704a"
         d="m -0.99333666,31.810612 c 1.08e-6,-4.835546 0.005824,-6.805227 0.0129389,-4.377069 0.007115,2.428157 0.007114,6.384512 -1.97e-6,8.7919 -0.007116,2.407388 -0.012938,0.420714 -0.0129369,-4.414831 z M 8.714314,33.706904 c -1.7e-6,-3.792585 0.00589,-5.352561 0.013098,-3.466613 0.00721,1.885947 0.00721,4.98897 3.2e-6,6.895608 -0.0072,1.906637 -0.013099,0.363589 -0.013101,-3.428995 z M -4.2992871,25.317247 c 6.9e-5,-0.474073 0.0077,-0.660365 0.016961,-0.413983 0.00926,0.246382 0.0092,0.63426 -1.256e-4,0.861951 -0.00933,0.227691 -0.016905,0.0261 -0.016835,-0.447968 z M 0.42456665,20.648346 C 0.44689747,19.951645 0.47443012,19.718925 0.57923008,19.341054 1.1040301,17.44881 2.5924597,16.312481 4.271573,16.522167 c 0.3275205,0.0409 0.4599111,0.146839 0.1835035,0.146839 -0.1750167,0 -0.8863645,0.25525 -1.1605827,0.416447 -0.3676842,0.21614 -0.9127553,0.690123 -1.1784069,1.024719 -0.6642017,0.836581 -1.1110692,2.098289 -1.1126594,3.14154 l -3.722e-4,0.244219 H 0.70022745 0.39739964 Z m 6.25691985,0.675195 c 0,-0.110617 0.010141,-0.155869 0.022536,-0.100561 0.012395,0.05531 0.012395,0.145813 0,0.201122 -0.012395,0.05531 -0.022536,0.01006 -0.022536,-0.100561 z M 6.2720981,17.660249 6.1526322,17.502225 6.2881474,17.641534 c 0.074533,0.07662 0.1355152,0.147731 0.1355152,0.158025 0,0.04507 -0.039905,0.0084 -0.1515645,-0.13931 z"
         id="path127" /><path
         style="fill:#9e3a62"
         d="m 11.745713,27.450429 c 0,-0.01193 0.03881,-0.05719 0.08624,-0.100561 0.07816,-0.07148 0.0799,-0.06944 0.01861,0.0217 -0.06438,0.09572 -0.104843,0.12616 -0.104843,0.07887 z m -0.893294,-0.251255 c -0.0613,-0.09114 -0.05955,-0.09317 0.01861,-0.0217 0.04743,0.04338 0.08624,0.08863 0.08624,0.100561 0,0.04729 -0.04047,0.01685 -0.104842,-0.07887 z m 1.630409,-0.545903 c 0.120831,-0.150123 0.226163,-0.272951 0.234071,-0.272951 0.037,0 -0.0021,0.05159 -0.219692,0.289719 l -0.234072,0.256184 z M 9.695984,25.848784 9.60211,25.719491 9.712986,25.828958 c 0.060982,0.06021 0.1108761,0.118389 0.1108761,0.129293 0,0.04598 -0.039659,0.01204 -0.1278781,-0.109467 z m 3.380242,0.05013 c 0,-0.01193 0.03881,-0.05719 0.08624,-0.100561 0.07816,-0.07148 0.0799,-0.06944 0.0186,0.0217 -0.06438,0.09572 -0.104842,0.12616 -0.104842,0.07887 z m -1.761697,-1.915755 c 0.07453,-0.01317 0.196497,-0.01317 0.27103,0 0.07453,0.01317 0.01355,0.02394 -0.135515,0.02394 -0.149067,0 -0.210049,-0.01077 -0.135515,-0.02394 z M 8.0044569,21.922118 c 0.00236,-0.06694 0.014041,-0.08056 0.029772,-0.03472 0.014235,0.04148 0.012484,0.09104 -0.00389,0.110138 -0.016375,0.01909 -0.028022,-0.01485 -0.025882,-0.07542 z m 6.8496761,-0.05746 c 0.0024,-0.06694 0.01404,-0.08056 0.02977,-0.03472 0.01424,0.04148 0.01248,0.09104 -0.0039,0.110138 -0.01637,0.0191 -0.02802,-0.01484 -0.02588,-0.07542 z M 8.0044569,21.002704 c 0.00236,-0.06694 0.014041,-0.08056 0.029772,-0.03472 0.014235,0.04148 0.012484,0.09104 -0.00389,0.110138 -0.016375,0.0191 -0.028022,-0.01484 -0.025882,-0.07542 z m 6.8496761,0 c 0.0024,-0.06694 0.01404,-0.08056 0.02977,-0.03472 0.01424,0.04148 0.01248,0.09104 -0.0039,0.110138 -0.01637,0.0191 -0.02802,-0.01484 -0.02588,-0.07542 z M 9.6760269,19.635407 c 0,-0.01193 0.038807,-0.05719 0.086237,-0.100561 0.078158,-0.07148 0.079901,-0.06945 0.018605,0.02169 -0.064376,0.09572 -0.1048422,0.12616 -0.1048422,0.07887 z m 3.4431921,-0.07887 c -0.0613,-0.09114 -0.05955,-0.09317 0.01861,-0.02169 0.08208,0.07507 0.108189,0.122256 0.06763,0.122256 -0.01023,0 -0.04904,-0.04525 -0.08624,-0.100561 z m -2.072641,-2.179765 c 0.03557,-0.0166 0.07808,-0.01456 0.09445,0.0045 0.01638,0.0191 -0.01273,0.03268 -0.06468,0.03018 -0.05741,-0.0028 -0.06908,-0.01637 -0.02977,-0.03472 z m 0.739174,0 c 0.03557,-0.0166 0.07808,-0.01456 0.09445,0.0045 0.01638,0.0191 -0.01273,0.03268 -0.06468,0.03018 -0.05741,-0.0028 -0.06908,-0.01637 -0.02977,-0.03472 z"
         id="path126" /><path
         style="fill:#726a59"
         d="m 0.6320841,36.867391 c 5.36e-6,-2.085922 0.006164,-2.930908 0.0136853,-1.877747 0.007522,1.053161 0.007517,2.759824 -9.72e-6,3.792585 -0.007527,1.03276 -0.013681,0.171083 -0.0136756,-1.914838 z m 6.4554505,0 c 5.4e-6,-2.085922 0.00616,-2.930908 0.013685,-1.877747 0.00752,1.053161 0.00752,2.759824 -9.7e-6,3.792585 -0.00753,1.03276 -0.013681,0.171083 -0.013675,-1.914838 z m -9.36232,-2.729512 c 0,-3.555548 0.00592,-5.01009 0.013148,-3.232316 0.00723,1.777774 0.00723,4.686859 0,6.464632 -0.00723,1.777774 -0.013148,0.323232 -0.013148,-3.232316 z M 9.9954534,34.48266 c 0,-3.365919 0.00594,-4.742886 0.013193,-3.059926 0.0073,1.682959 0.0073,4.436892 0,6.119852 -0.0073,1.682959 -0.013193,0.305992 -0.013193,-3.059926 z M -5.1936844,32.256438 c 0.1829455,-0.01106 0.4823108,-0.01106 0.6652563,0 0.1829455,0.01106 0.033263,0.0201 -0.3326282,0.0201 -0.3658909,0 -0.5155736,-0.009 -0.3326281,-0.0201 z m 17.4444994,0 c 0.182946,-0.01106 0.482311,-0.01106 0.665257,0 0.182945,0.01106 0.03326,0.0201 -0.332628,0.0201 -0.365891,0 -0.515574,-0.009 -0.332629,-0.0201 z m 0.874689,-4.22766 c 0,-0.0099 0.07207,-0.09393 0.160155,-0.186756 l 0.160154,-0.168775 -0.144735,0.186756 c -0.134913,0.174083 -0.175574,0.213169 -0.175574,0.168775 z m -1.737058,-5.536562 c 0.03388,-0.01594 0.08932,-0.01594 0.123196,0 0.03388,0.01594 0.0062,0.02898 -0.0616,0.02898 -0.06776,0 -0.09548,-0.01304 -0.0616,-0.02898 z M 1.2494465,17.854041 c 0,-0.01193 0.038807,-0.05719 0.086237,-0.100561 0.078158,-0.07148 0.079901,-0.06944 0.018605,0.0217 -0.064376,0.09572 -0.1048422,0.12616 -0.1048422,0.07887 z m 0.197113,-0.229853 c 0,-0.01193 0.038807,-0.05719 0.086237,-0.100561 0.078158,-0.07148 0.079901,-0.06945 0.018605,0.02169 -0.064376,0.09572 -0.1048422,0.12616 -0.1048422,0.07887 z M 7.1591066,16.568445 7.0396407,16.41042 7.1751558,16.54973 c 0.074533,0.07662 0.1355152,0.147731 0.1355152,0.158024 0,0.04507 -0.039905,0.0084 -0.1515644,-0.139309 z"
         id="path125" /><path
         style="fill:#673549"
         d="m 12.139939,27.041149 c 0.06366,-0.07901 0.126824,-0.143658 0.140376,-0.143658 0.01355,0 -0.02744,0.06465 -0.0911,0.143658 -0.06366,0.07901 -0.126824,0.143659 -0.140376,0.143659 -0.01355,0 0.02744,-0.06465 0.0911,-0.143659 z m -1.898368,-0.502804 -0.3930702,-0.474073 0.4065452,0.458359 c 0.377587,0.425709 0.429011,0.489787 0.39307,0.489787 -0.0074,0 -0.190357,-0.213333 -0.406545,-0.474073 z m 2.588264,-0.301683 c 0.06366,-0.07901 0.126824,-0.143659 0.140375,-0.143659 0.01355,0 -0.02744,0.06465 -0.0911,0.143659 -0.06366,0.07901 -0.126824,0.143658 -0.140375,0.143658 -0.01355,0 0.02744,-0.06465 0.0911,-0.143658 z M 9.7190195,23.061809 c -0.061296,-0.09114 -0.059553,-0.09317 0.018605,-0.0217 0.082085,0.07507 0.1081894,0.122257 0.067632,0.122257 -0.010233,0 -0.049039,-0.04525 -0.086237,-0.100561 z m 3.3572065,0.07887 c 0,-0.01193 0.03881,-0.05719 0.08624,-0.100561 0.07816,-0.07148 0.0799,-0.06944 0.0186,0.0217 -0.06438,0.09572 -0.104842,0.12616 -0.104842,0.07887 z"
         id="path124" /><path
         style="fill:#4c4a47"
         d="m 0.53081354,26.236662 c 4.736e-5,-0.600493 0.00735,-0.838341 0.0162271,-0.528552 0.008878,0.309789 0.008839,0.801101 -8.612e-5,1.091805 -0.008925,0.290703 -0.0161884,0.03724 -0.016141,-0.563253 z m 6.65256346,0 c 4.74e-5,-0.600493 0.00735,-0.838341 0.016227,-0.528552 0.00888,0.309789 0.00884,0.801101 -8.61e-5,1.091805 -0.00892,0.290703 -0.016188,0.03724 -0.016141,-0.563253 z m -15.0134477,-0.0714 c 0.196497,-0.01091 0.5180376,-0.01091 0.7145346,0 0.196497,0.01091 0.035727,0.01983 -0.3572673,0.01983 -0.392994,0 -0.5537643,-0.0089 -0.3572673,-0.01983 z m 5.0017422,8.07e-4 c 0.1016364,-0.0124 0.2679505,-0.0124 0.3695868,0 0.1016364,0.0124 0.018479,0.02254 -0.1847934,0.02254 -0.2032728,0 -0.2864298,-0.01014 -0.1847934,-0.02254 z m 17.7401695,-7.52e-4 c 0.182945,-0.01106 0.482311,-0.01106 0.665256,0 0.182946,0.01106 0.03326,0.0201 -0.332628,0.0201 -0.365891,0 -0.515574,-0.009 -0.332628,-0.0201 z M -6.2162081,23.047443 c 0.049056,-0.06321 0.10028,-0.114927 0.1138315,-0.114927 0.013552,0 -0.015497,0.05172 -0.064553,0.114927 -0.049056,0.06321 -0.10028,0.114927 -0.1138316,0.114927 -0.013552,0 0.015498,-0.05172 0.064553,-0.114927 z M -4.24977,21.63959 c 6.24e-5,-0.505678 0.0076,-0.704854 0.016753,-0.442613 0.00915,0.262241 0.0091,0.675977 -1.134e-4,0.919414 -0.00921,0.243437 -0.016702,0.02888 -0.01664,-0.476801 z m 2.7765933,-0.12827 c 0.1151879,-0.0121 0.3036772,-0.0121 0.4188651,0 0.11518791,0.0121 0.020943,0.022 -0.2094325,0.022 -0.2303759,0 -0.3246205,-0.0099 -0.2094326,-0.022 z M 14.893236,17.660249 c -0.0613,-0.09114 -0.05955,-0.09317 0.01861,-0.0217 0.04743,0.04338 0.08624,0.08863 0.08624,0.100561 0,0.04729 -0.04047,0.01685 -0.104842,-0.07887 z m -0.29567,-0.34478 c -0.0613,-0.09114 -0.05955,-0.09317 0.0186,-0.0217 0.08209,0.07507 0.10819,0.122257 0.06763,0.122257 -0.01023,0 -0.04904,-0.04525 -0.08624,-0.100561 z M 0.48563366,16.611542 c 0.0490558,-0.06321 0.10028001,-0.114927 0.11383153,-0.114927 0.0135515,0 -0.0154975,0.05172 -0.0645533,0.114927 -0.0490558,0.06321 -0.10028001,0.114927 -0.11383153,0.114927 -0.0135515,0 0.0154975,-0.05172 0.0645533,-0.114927 z"
         id="path123" /><path
         style="fill:#4e463b"
         d="m -4.2468805,37.758073 c 0,-1.564441 0.00634,-2.204439 0.014082,-1.422219 0.00774,0.782221 0.00774,2.062218 0,2.844439 -0.00774,0.78222 -0.014082,0.142221 -0.014082,-1.42222 z m 16.2125435,0 c 0,-1.564441 0.0063,-2.204439 0.01408,-1.422219 0.0077,0.782221 0.0077,2.062218 0,2.844439 -0.0077,0.78222 -0.01408,0.142221 -0.01408,-1.42222 z M -4.2509046,32.95988 c 9.74e-5,-0.379259 0.00807,-0.526932 0.017723,-0.328163 0.00965,0.198769 0.00957,0.509071 -1.771e-4,0.689561 -0.00975,0.180489 -0.017643,0.01786 -0.017546,-0.361398 z m 16.2125436,0 c 9.7e-5,-0.379259 0.0081,-0.526932 0.01772,-0.328163 0.0097,0.198769 0.0096,0.509071 -1.77e-4,0.689561 -0.0097,0.180489 -0.01764,0.01786 -0.01755,-0.361398 z M -5.4820906,25.345979 c 0,-0.458271 0.00765,-0.645745 0.017006,-0.41661 0.00935,0.229136 0.00935,0.604084 0,0.83322 -0.00935,0.229135 -0.017006,0.04166 -0.017006,-0.41661 z m 5.89769728,-5.377617 c 0.002365,-0.06694 0.0140414,-0.08056 0.0297723,-0.03472 0.014235,0.04148 0.0124844,0.09104 -0.00389,0.110138 -0.0163747,0.0191 -0.0280216,-0.01485 -0.0258819,-0.07542 z M 3.7508921,16.455974 c 0.061298,-0.01375 0.1499987,-0.01322 0.197113,0.0012 0.047114,0.01438 -0.00304,0.02563 -0.1114506,0.02499 -0.1084121,-6.38e-4 -0.1469602,-0.0124 -0.085662,-0.02615 z"
         id="path122" /><path
         style="fill:#453a38"
         d="m 0.86958948,27.314532 c 0.18407262,-0.01109 0.47235042,-0.011 0.64061722,1.82e-4 0.1682668,0.01119 0.017662,0.02026 -0.3346776,0.02016 -0.35233944,-10e-5 -0.49001228,-0.0093 -0.30593962,-0.02034 z m 2.65897602,5.4e-5 c 0.1829455,-0.01106 0.4823108,-0.01106 0.6652563,0 0.1829455,0.01106 0.033263,0.0201 -0.3326281,0.0201 -0.365891,0 -0.5155737,-0.009 -0.3326282,-0.0201 z m 2.712353,-5.4e-5 c 0.1840727,-0.01109 0.4723504,-0.011 0.6406172,1.82e-4 0.1682669,0.01119 0.017662,0.02026 -0.3346775,0.02016 -0.3523395,-10e-5 -0.4900123,-0.0093 -0.3059397,-0.02034 z m 5.6526295,0.02097 c 0,-0.01193 0.03881,-0.05719 0.08624,-0.100561 0.07816,-0.07148 0.0799,-0.06944 0.01861,0.0217 -0.06438,0.09572 -0.104842,0.12616 -0.104842,0.07887 z m -1.188964,-0.251255 c -0.0613,-0.09114 -0.05955,-0.09317 0.01861,-0.0217 0.08208,0.07507 0.108189,0.122257 0.06763,0.122257 -0.01023,0 -0.04904,-0.04525 -0.08624,-0.100561 z M -5.1690453,26.165384 c 0.169394,-0.01122 0.4465841,-0.01122 0.6159781,0 0.169394,0.01122 0.030799,0.0204 -0.3079891,0.0204 -0.3387879,0 -0.477383,-0.0092 -0.307989,-0.0204 z M 12.97767,26.071308 c 0,-0.01193 0.03881,-0.05718 0.08624,-0.100561 0.07816,-0.07148 0.0799,-0.06944 0.01861,0.0217 -0.06438,0.09572 -0.104842,0.12616 -0.104842,0.07887 z M 9.1871348,21.519874 c 0.00236,-0.06694 0.014041,-0.08056 0.029772,-0.03472 0.014235,0.04148 0.012484,0.09104 -0.00389,0.110138 -0.016375,0.0191 -0.028022,-0.01485 -0.025882,-0.07542 z m -7.2108341,-0.0095 c 0.8740729,-0.0088 2.304374,-0.0088 3.178447,0 0.8740729,0.0088 0.1589223,0.01599 -1.5892235,0.01599 -1.7481459,0 -2.4632965,-0.0072 -1.5892235,-0.01599 z m 11.6951543,-0.33528 c 0.0024,-0.06694 0.01404,-0.08056 0.02977,-0.03472 0.01423,0.04148 0.01248,0.09104 -0.0039,0.110139 -0.01637,0.01909 -0.02802,-0.01485 -0.02588,-0.07542 z m -18.86309,-0.41139 c 0.1840726,-0.01109 0.4723504,-0.011 0.6406172,1.83e-4 0.1682668,0.01119 0.017662,0.02026 -0.3346776,0.02016 -0.3523395,-1.01e-4 -0.4900123,-0.0093 -0.3059396,-0.02034 z M 8.9861315,18.536566 c 0.091943,-0.110617 0.1782558,-0.201122 0.1918073,-0.201122 0.013552,0 -0.050587,0.09051 -0.1425291,0.201122 -0.091943,0.110617 -0.1782559,0.201122 -0.1918074,0.201122 -0.013552,0 0.050587,-0.09051 0.1425292,-0.201122 z m 4.8508075,-0.0431 -0.144735,-0.186757 0.160154,0.168776 c 0.08808,0.09283 0.160155,0.176866 0.160155,0.186756 0,0.04439 -0.04066,0.0053 -0.175574,-0.168775 z M 8.1237621,17.473493 c 0.049056,-0.06321 0.10028,-0.114927 0.1138315,-0.114927 0.013552,0 -0.015497,0.05172 -0.064553,0.114927 -0.049056,0.06321 -0.10028,0.114927 -0.1138316,0.114927 -0.013552,0 0.015498,-0.05172 0.064553,-0.114927 z m 6.6216389,0.01437 c -0.0613,-0.09114 -0.05955,-0.09317 0.01861,-0.0217 0.04743,0.04338 0.08624,0.08863 0.08624,0.100561 0,0.04729 -0.04047,0.01685 -0.104842,-0.07887 z M 4.049067,16.457361 c 0.035573,-0.0166 0.078075,-0.01456 0.09445,0.0045 0.016375,0.0191 -0.01273,0.03268 -0.064678,0.03018 -0.057406,-0.0028 -0.069083,-0.01637 -0.029772,-0.03472 z"
         id="path121" /><path
         style="fill:#323232"
         d="m -8.2605463,42.066725 c -0.2556471,-0.07052 -0.4299297,-0.330993 -0.4673692,-0.698497 -0.017146,-0.168305 -0.024494,-3.538325 -0.016329,-7.488934 0.014353,-6.944646 0.017949,-7.188265 0.1084005,-7.343887 0.1684945,-0.289895 0.2984178,-0.327477 1.1321148,-0.327477 h 0.7624205 l 0.016159,-1.077439 c 0.015396,-1.026543 0.022352,-1.092843 0.1472592,-1.403552 0.1663211,-0.413725 0.4857004,-0.819015 0.8174581,-1.037347 l 0.2587588,-0.17029 V 21.662836 20.80637 h 0.6159781 0.6159781 v 0.856825 0.856825 l 0.2340717,0.131961 c 0.3157869,0.17803 0.6817385,0.616735 0.8304734,0.995578 0.1654964,0.421536 0.2160662,0.835211 0.2164039,1.770249 l 2.855e-4,0.790122 h 0.3695868 0.3695869 v -2.074182 c 0,-1.816953 0.01,-2.093913 0.080597,-2.233284 0.1407684,-0.277884 0.3041151,-0.347069 0.8194321,-0.347069 h 0.46595712 l 0.028162,-0.933781 c 0.033621,-1.114786 0.13455646,-1.657403 0.45506947,-2.446398 C 0.23987835,16.597825 1.4752922,15.457395 2.9184686,15.1098 l 0.3021078,-0.07276 v -1.166502 -1.166503 h 0.6406173 0.6406172 v 1.166503 1.166502 l 0.3021079,0.07276 c 1.2350312,0.297463 2.4342943,1.277079 3.0797274,2.515671 0.050804,0.09749 0.082594,0.07646 0.3718207,-0.246021 1.7775571,-1.981925 4.5523691,-1.998296 6.3481811,-0.03745 0.476069,0.519819 0.721857,0.890208 1.002436,1.510618 0.829284,1.833693 0.730616,3.875145 -0.289137,5.982299 -0.146928,0.303604 -0.367482,0.710948 -0.490119,0.90521 -0.122637,0.194261 -0.222976,0.378988 -0.222976,0.410504 0,0.03537 0.264933,0.0573 0.692342,0.0573 0.758326,0 0.896455,0.04259 1.062037,0.327477 0.0907,0.156043 0.09355,0.388454 0.09355,7.604999 0,7.015175 -0.005,7.45295 -0.08692,7.598735 -0.04781,0.08508 -0.146619,0.200309 -0.21958,0.256058 -0.125746,0.09608 -0.760512,0.101818 -12.183361,0.110135 -6.6278869,0.0048 -12.1279977,-0.01255 -12.2224683,-0.03861 z m 2.7588728,-4.27992 v -2.844438 h 0.6159781 0.6159781 v 2.844438 2.844438 h 1.0102041 1.0102041 v -6.493364 -6.493364 h -2.6117472 -2.6117471 v 6.493364 6.493364 h 0.985565 0.9855649 z m 0,-4.798194 V 32.29905 h 0.6159781 0.6159781 v 0.689561 0.689561 h -0.6159781 -0.6159781 z m 6.1705343,3.548365 0.0138858,-4.094267 0.13202698,-0.421471 C 1.0051252,31.413576 1.2261266,31.009089 1.6245701,30.539109 c 0.2813668,-0.331883 0.4417134,-0.464545 0.8130911,-0.672707 0.5369026,-0.30094 0.8779881,-0.393523 1.4430201,-0.391686 0.8610358,0.0028 1.627558,0.37258 2.2226726,1.072251 0.3927849,0.461794 0.6142915,0.867833 0.8042598,1.474271 l 0.132027,0.421471 0.013886,4.094267 0.013886,4.094267 H 7.9035763 8.7397402 V 33.731641 26.832039 L 8.4274105,26.36196 C 7.7537835,25.348103 7.2820422,24.375197 7.0362085,23.492784 L 6.8961308,22.98998 H 2.9393889 -1.0173529 v 8.820632 8.820631 h 0.83616392 0.83616394 z M 0.55955103,26.236662 V 25.173589 H 1.1755291 1.7915072 v 1.063073 1.063073 H 1.1755291 0.55955103 Z m 2.66102537,0 v -1.063073 h 0.6406173 0.6406172 v 1.063073 1.063073 H 3.8611937 3.2205764 Z m 2.7103037,0 v -1.063073 h 0.6159781 0.6159781 v 1.063073 1.063073 H 6.5468582 5.9308801 Z M 5.8219119,36.651903 5.8076845,32.672563 5.6507342,32.286217 C 5.4407272,31.769268 5.107973,31.364728 4.7033155,31.13441 4.4005418,30.96208 4.3436745,30.9496 3.8611937,30.9496 c -0.4824809,0 -0.5393482,0.01248 -0.8421219,0.18481 -0.4046574,0.230318 -0.7374117,0.634858 -0.9474187,1.151807 l -0.1569502,0.386346 -0.014228,3.97934 -0.014227,3.97934 h 1.9749458 1.9749457 z m 6.1701931,1.134902 v -2.844438 h 0.615978 0.615978 v 2.844438 2.844438 h 0.985565 0.985565 V 34.137879 27.644515 H 14.32738 13.459568 l -0.401103,0.440155 c -0.482016,0.528946 -1.128259,1.143764 -1.330259,1.265573 -0.329196,0.198509 -0.60883,0.04937 -1.441514,-0.76884 -0.138437,-0.13603 -0.265945,-0.247327 -0.28335,-0.247327 -0.017405,0 -0.031646,2.766863 -0.031646,6.148584 v 6.148583 h 1.010205 1.010204 z m 0,-4.798194 V 32.29905 h 0.615978 0.615978 v 0.689561 0.689561 h -0.615978 -0.615978 z m -0.111189,-5.622907 c 1.409119,-1.451583 2.453706,-3.119544 2.84833,-4.548115 0.192495,-0.696849 0.224856,-1.676949 0.07777,-2.355227 -0.40641,-1.874078 -1.736433,-3.103796 -3.356968,-3.103796 -1.6193343,0 -2.9581874,1.235608 -3.3570597,3.09818 -0.1479523,0.690877 -0.1150033,1.721455 0.077317,2.418307 0.2634403,0.95455 0.7392853,1.906268 1.4297037,2.859491 0.570813,0.788091 1.689016,2.019422 1.837407,2.023297 0.03371,8.81e-4 0.233283,-0.175581 0.443504,-0.392137 z M 10.8599,23.874738 c -0.826017,-0.25884 -1.505547,-1.164347 -1.6234453,-2.163319 -0.169647,-1.437448 0.6597092,-2.747929 1.8894473,-2.98555 0.918736,-0.177527 1.924262,0.450161 2.337096,1.458904 0.510809,1.248142 0.108122,2.744905 -0.928833,3.452417 -0.459994,0.313853 -1.128208,0.408661 -1.674265,0.237548 z m 1.08745,-1.526725 c 0.609433,-0.399414 0.653546,-1.434636 0.08365,-1.963139 -0.33404,-0.30978 -0.899611,-0.28437 -1.221637,0.05488 -0.2495,0.262848 -0.364099,0.612859 -0.334934,1.022965 0.05994,0.842796 0.830804,1.306121 1.472918,0.885289 z m -16.2261419,2.888903 c -0.017281,-1.078108 -0.035306,-1.140943 -0.3754277,-1.308757 -0.3285622,-0.162111 -0.7462129,0.09487 -0.8160627,0.502135 -0.04167,0.242956 -0.040454,1.69045 0.00146,1.739327 0.018069,0.02107 0.296719,0.03831 0.619223,0.03831 h 0.5863708 z M 6.7388713,21.079322 C 6.7783733,20.523783 6.8756604,19.990439 7.0224477,19.524708 7.1532916,19.109563 7.1176203,18.935521 6.777209,18.328175 6.4498452,17.744107 5.9158016,17.181883 5.4184184,16.897683 4.858082,16.577513 4.4787939,16.47442 3.8611937,16.47442 c -0.6227215,0 -0.9966185,0.102992 -1.576904,0.434369 -0.3410216,0.194743 -0.5017205,0.336188 -0.8646983,0.761096 -0.3632451,0.425222 -0.4834003,0.612381 -0.64863108,1.01034 -0.29074684,0.700263 -0.35924403,1.092661 -0.35924403,2.057987 v 0.815183 H 3.5584391 6.705162 Z"
         id="path120" /></g></g></svg>
