<?xml version="1.0" encoding="UTF-8" standalone="no"?>
<!-- Created with Inkscape (http://www.inkscape.org/) -->

<svg
   width="26.132545mm"
   height="29.364155mm"
   viewBox="0 0 26.132545 29.364155"
   version="1.1"
   id="svg1"
   xml:space="preserve"
   inkscape:export-filename="sector simbolico.svg"
   inkscape:export-xdpi="96"
   inkscape:export-ydpi="96"
   xmlns:inkscape="http://www.inkscape.org/namespaces/inkscape"
   xmlns:sodipodi="http://sodipodi.sourceforge.net/DTD/sodipodi-0.dtd"
   xmlns="http://www.w3.org/2000/svg"
   xmlns:svg="http://www.w3.org/2000/svg"><sodipodi:namedview
     id="namedview1"
     pagecolor="#505050"
     bordercolor="#ffffff"
     borderopacity="1"
     inkscape:showpageshadow="0"
     inkscape:pageopacity="0"
     inkscape:pagecheckerboard="1"
     inkscape:deskcolor="#505050"
     inkscape:document-units="px"><inkscape:page
       x="0"
       y="0"
       width="26.132545"
       height="29.364155"
       id="page2"
       margin="0"
       bleed="0" /></sodipodi:namedview><defs
     id="defs1" /><g
     inkscape:label="Capa 1"
     inkscape:groupmode="layer"
     id="layer1"
     transform="translate(9.3033019,-12.905748)"><g
       id="g138"
       transform="matrix(1.0975733,0,0,1.0932793,-0.59215069,-2.7476767)"><path
         style="fill:#cdcdcd"
         d="m -0.20413718,41.16164 c 2.88731548,-0.0083 7.61201368,-0.0083 10.49932918,0 2.887316,0.0083 0.524966,0.01501 -5.2496646,0.01501 -5.77463104,0 -8.1369801,-0.0068 -5.24966458,-0.01501 z M 15.831288,40.072375 c 0.0025,-0.06738 0.01463,-0.08108 0.03102,-0.03494 0.01483,0.04175 0.01301,0.09163 -0.0041,0.110854 -0.01706,0.01922 -0.02919,-0.01494 -0.02696,-0.07591 z M -5.6848383,37.539451 c 0,-0.01201 0.040431,-0.05756 0.089848,-0.101215 0.08143,-0.07194 0.083246,-0.0699 0.019384,0.02184 -0.067071,0.09634 -0.1092318,0.12698 -0.1092318,0.07938 z m 8.0646629,-8.860954 c 0.00246,-0.06738 0.014629,-0.08108 0.031019,-0.03494 0.014831,0.04175 0.013007,0.09164 -0.00405,0.110854 -0.01706,0.01922 -0.029195,-0.01494 -0.026965,-0.07591 z m 12.5313704,-0.0241 c 0,-0.07953 0.01165,-0.112059 0.0259,-0.0723 0.01424,0.03976 0.01424,0.10483 0,0.144593 -0.01424,0.03976 -0.0259,0.0072 -0.0259,-0.0723 z m 0,-1.156739 c 0,-0.07953 0.01165,-0.112059 0.0259,-0.0723 0.01424,0.03976 0.01424,0.104829 0,0.144592 -0.01424,0.03976 -0.0259,0.0072 -0.0259,-0.0723 z M 5.3474749,23.031573 c 0.023636,-0.160609 0.030867,-0.168754 0.047033,-0.05298 0.010507,0.07524 -0.00206,0.160646 -0.02793,0.189787 -0.028483,0.03209 -0.036017,-0.02187 -0.019103,-0.136804 z m 6.5975261,0.102776 c -0.01562,-0.04586 -0.01935,-0.130444 -0.0083,-0.18797 0.01256,-0.06531 0.03013,-0.034 0.04679,0.08338 0.02796,0.196964 0.0098,0.24634 -0.0385,0.104593 z m -0.0097,-0.755259 c 10e-4,-0.09543 0.01255,-0.127468 0.02557,-0.0712 0.01302,0.05627 0.01216,0.134353 -0.0019,0.173511 -0.01406,0.03916 -0.02471,-0.0069 -0.02367,-0.102316 z M 5.3616827,22.234498 c 0,-0.07953 0.011653,-0.112059 0.025896,-0.0723 0.014243,0.03976 0.014243,0.104829 0,0.144592 -0.014243,0.03976 -0.025896,0.0072 -0.025896,-0.0723 z M 12.592722,19.96076 c 0,-0.01 0.07509,-0.09454 0.16686,-0.18797 l 0.16686,-0.169873 -0.150795,0.18797 c -0.140561,0.175215 -0.182925,0.214555 -0.182925,0.169873 z M -4.4109283,18.898283 c 0.037062,-0.01671 0.081344,-0.01465 0.098405,0.0046 0.01706,0.01922 -0.013263,0.03289 -0.067386,0.03038 -0.05981,-0.0028 -0.071976,-0.01648 -0.031019,-0.03494 z m 9.2895959,-0.119109 c 0.2047241,-0.01098 0.5397272,-0.01098 0.7444513,0 0.204724,0.01098 0.037223,0.01996 -0.3722256,0.01996 -0.4094482,0 -0.5769497,-0.009 -0.3722257,-0.01996 z m 5.7245734,-3.09e-4 c 0.416507,-0.0097 1.098065,-0.0097 1.514573,0 0.416508,0.0097 0.07573,0.01768 -0.757287,0.01768 -0.833015,0 -1.173794,-0.008 -0.757286,-0.01768 z m -13.5766083,-4.4497 c 0.037062,-0.01671 0.081344,-0.01465 0.098404,0.0046 0.01706,0.01922 -0.013263,0.03289 -0.067386,0.03038 -0.05981,-0.0028 -0.071976,-0.01648 -0.031019,-0.03494 z"
         id="path155" /><path
         style="fill:#fbda4a"
         d="M 4.4015877,32.175111 4.2112314,31.531564 4.431431,31.06175 c 0.1211098,-0.258398 0.2485985,-0.517181 0.2833082,-0.575074 0.055418,-0.09243 0.1270949,0.02947 0.5881843,1.000371 0.2887916,0.608097 0.516521,1.111701 0.5060654,1.119122 -0.204263,0.144959 -0.4624166,0.21249 -0.8123,0.21249 h -0.404745 z m 3.5377217,0.569202 c -0.1071191,-0.0686 -0.096726,-0.09715 0.4428161,-1.216599 l 0.5525098,-1.146352 0.1021979,0.192043 c 0.1693471,0.318224 1.0401578,2.165931 1.0401578,2.207032 0,0.07295 -2.0206801,0.0388 -2.1376816,-0.03612 z m 4.0373156,0.03612 c 0,-0.04128 0.871319,-1.889804 1.041226,-2.20898 l 0.103266,-0.193989 0.276049,0.56993 c 0.310531,0.641121 0.309128,0.612649 0.06727,1.365187 l -0.162645,0.506074 h -0.662584 c -0.364421,0 -0.662583,-0.0172 -0.662583,-0.03822 z M 5.5529613,26.63628 c -0.091452,-0.08342 -0.1200392,-0.167534 -0.1200392,-0.353196 0,-0.286801 0.1489399,-0.462696 0.3917903,-0.462696 0.2110938,0 0.3254357,0.08186 0.4008559,0.286975 0.075619,0.205657 -5.248e-4,0.488526 -0.1568779,0.58279 -0.1480701,0.08927 -0.386061,0.06441 -0.5157291,-0.05387 z m 2.875,0.05127 c -0.1491873,-0.0982 -0.2206714,-0.380127 -0.147109,-0.580191 0.073702,-0.200444 0.1895631,-0.286975 0.3842482,-0.286975 0.1946852,0 0.3105461,0.08653 0.3842483,0.286975 0.075619,0.205657 -5.248e-4,0.488526 -0.1568779,0.58279 -0.1164994,0.07024 -0.355889,0.0689 -0.4645096,-0.0026 z m 2.8237807,0 c -0.149188,-0.0982 -0.220672,-0.380127 -0.147109,-0.580191 0.07542,-0.205117 0.189762,-0.286975 0.400856,-0.286975 0.24285,0 0.39179,0.175895 0.39179,0.462696 0,0.185662 -0.02859,0.269773 -0.120039,0.353196 -0.127654,0.116446 -0.387907,0.141839 -0.525498,0.05127 z"
         id="path154" /><path
         style="fill:#989898"
         d="m 15.831288,40.245886 c 0.0025,-0.06738 0.01463,-0.08108 0.03102,-0.03494 0.01483,0.04175 0.01301,0.09163 -0.0041,0.110854 -0.01706,0.01922 -0.02919,-0.01494 -0.02696,-0.07591 z m -1.858895,-4.405247 c -0.06386,-0.09173 -0.06205,-0.09378 0.01938,-0.02184 0.08552,0.07556 0.112719,0.123051 0.07046,0.123051 -0.01066,0 -0.05109,-0.04555 -0.08985,-0.101214 z M -1.8560349,35.251828 c -0.1379187,-0.07732 -0.3732601,-0.152019 -0.5229807,-0.166006 l -0.2722194,-0.02543 -0.3343129,-0.759386 c -0.587466,-1.334419 -1.2226272,-3.398244 -1.0908074,-3.544353 0.050831,-0.05634 1.3452724,-0.48282 1.4654471,-0.48282 0.022192,0 0.1408479,0.4172 0.2636795,0.927112 0.246641,1.023882 0.3119944,1.180323 0.59448,1.423044 0.1731109,0.148743 0.2328265,0.165751 0.5819626,0.165751 0.47268115,0 0.72946423,-0.129517 0.94816784,-0.478239 0.24027191,-0.383112 0.23450087,-0.641908 -0.0389456,-1.746476 -0.12930855,-0.522333 -0.22993359,-0.95471 -0.2236112,-0.960838 0.0354749,-0.03438 1.3927959,-0.429256 1.47551,-0.429256 0.0754171,0 0.11747496,0.0724 0.17637786,0.303644 0.3808437,1.495104 0.6634201,3.891451 0.5002478,4.242277 -0.037859,0.0814 -0.096021,0.13672 -0.1292494,0.122939 -0.472611,-0.196006 -0.63730318,-0.227345 -1.07972434,-0.205462 -0.39373681,0.01948 -0.52564563,0.05279 -0.81658618,0.206259 -0.46042678,0.242864 -0.86630608,0.681487 -1.07910458,1.166157 l -0.1675696,0.381657 z m 4.2418152,-6.799859 c 0.00105,-0.09543 0.012553,-0.127469 0.02557,-0.07119 0.013017,0.05627 0.012161,0.134353 -0.0019,0.173511 -0.014064,0.03916 -0.024714,-0.0069 -0.023668,-0.102316 z m 12.5213617,-0.0048 c 0.0025,-0.06738 0.01463,-0.08108 0.03102,-0.03494 0.01483,0.04175 0.01301,0.09164 -0.0041,0.110855 -0.01706,0.01922 -0.02919,-0.01494 -0.02696,-0.07591 z M 2.3857803,27.700089 c 0.00105,-0.09543 0.012553,-0.127469 0.02557,-0.07119 0.013017,0.05627 0.012161,0.134353 -0.0019,0.173511 -0.014064,0.03916 -0.024714,-0.0069 -0.023668,-0.102316 z m 12.5254147,0.02892 c 0,-0.07953 0.01165,-0.112059 0.0259,-0.0723 0.01424,0.03976 0.01424,0.10483 0,0.144593 -0.01424,0.03976 -0.0259,0.0072 -0.0259,-0.0723 z M 3.5309542,24.258791 c 0.05111,-0.06362 0.1044786,-0.115674 0.1185975,-0.115674 0.014119,0 -0.016146,0.05205 -0.067256,0.115674 -0.05111,0.06362 -0.1044786,0.115674 -0.1185975,0.115674 -0.014119,0 0.016146,-0.05205 0.067256,-0.115674 z M -2.2449603,22.61752 c 0,-0.01201 0.040431,-0.05756 0.089847,-0.101215 0.08143,-0.07194 0.083246,-0.0699 0.019384,0.02184 -0.067071,0.09634 -0.1092318,0.12698 -0.1092318,0.07938 z M 11.929337,22.142923 c 0.0025,-0.06738 0.01463,-0.08108 0.03102,-0.03494 0.01483,0.04175 0.01301,0.09164 -0.0041,0.110854 -0.01706,0.01922 -0.0292,-0.01494 -0.02697,-0.07591 z M 4.1767758,19.193239 c 0.00246,-0.06738 0.014629,-0.08108 0.031019,-0.03494 0.014831,0.04175 0.013007,0.09164 -0.00405,0.110854 -0.01706,0.01922 -0.029195,-0.01494 -0.026966,-0.07591 z"
         id="path153" /><path
         style="fill:#f3bd16"
         d="M 3.8705235,32.327117 C 3.6166313,31.53668 3.6050787,31.642948 4.044764,30.724342 4.2623303,30.269795 4.4556385,29.879194 4.4743379,29.85634 c 0.018699,-0.02285 0.08877,0.07475 0.1557136,0.216908 l 0.1217147,0.258462 -0.1688238,0.361461 c -0.092853,0.198803 -0.2225085,0.466644 -0.2881231,0.595201 l -0.1192994,0.233741 0.1966853,0.648273 0.1966853,0.648273 H 4.2986499 4.0284092 Z m 7.5413455,0.467028 c 0,-0.0184 0.814506,-1.734695 1.384104,-2.916528 0.02632,-0.05461 0.07889,0.0012 0.174717,0.185368 l 0.137069,0.263482 -0.596111,1.246096 -0.596111,1.246096 h -0.251834 c -0.138509,0 -0.251834,-0.01103 -0.251834,-0.02451 z m -3.8565574,-0.22769 -0.1856426,-0.0659 0.6348018,-1.325341 c 0.349141,-0.728938 0.6447772,-1.336579 0.6569695,-1.350314 0.029549,-0.03329 0.2350766,0.423835 0.2333141,0.518925 -0.00204,0.109979 -1.0457915,2.261866 -1.1040761,2.276255 -0.027348,0.0068 -0.1332633,-0.01738 -0.2353667,-0.05363 z"
         id="path152" /><path
         style="fill:#f5991e"
         d="M 5.8535714,30.837743 5.1556321,29.37736 5.8707017,29.361313 c 0.3932883,-0.0088 1.034068,-0.0088 1.423955,0 l 0.7088854,0.01605 -0.6956855,1.460383 c -0.382627,0.803211 -0.709334,1.460383 -0.7260156,1.460383 -0.016682,0 -0.344403,-0.657172 -0.7282696,-1.460383 z m 4.1683596,-0.0015 -0.696828,-1.458929 0.709663,-0.01605 c 0.390315,-0.0088 1.031968,-0.0088 1.425895,0 l 0.716232,0.01605 -0.689234,1.445426 c -0.379079,0.794984 -0.707159,1.451502 -0.729067,1.458928 -0.02191,0.0074 -0.353406,-0.643015 -0.736661,-1.445425 z M 3.3040585,29.948518 c -0.033691,-0.218706 -0.069345,-0.443193 -0.079233,-0.498861 -0.015498,-0.08726 0.023842,-0.101215 0.2852646,-0.101215 0.1667832,0 0.3028668,0.01952 0.3024079,0.04338 -4.588e-4,0.02386 -0.101263,0.248345 -0.2240092,0.498861 l -0.2231749,0.455484 z m 10.4308765,-0.07947 c -0.119936,-0.249309 -0.218066,-0.468434 -0.218066,-0.486946 0,-0.01851 0.139062,-0.03366 0.309027,-0.03366 0.293736,0 0.307776,0.0064 0.283743,0.130133 -0.01391,0.07157 -0.04891,0.284024 -0.07779,0.472112 -0.02888,0.188089 -0.05844,0.348655 -0.06568,0.356813 -0.0072,0.0082 -0.111298,-0.189146 -0.231235,-0.438455 z M -4.0448802,22.277876 c -0.00163,-0.008 -0.122927,-0.495065 -0.2695427,-1.082471 -0.2335602,-0.935744 -0.2824699,-1.07665 -0.3949276,-1.137764 -0.070595,-0.03836 -0.2866073,-0.152773 -0.4800284,-0.254243 -0.6696716,-0.351312 -1.4463216,-1.368077 -1.8224557,-2.3859 -0.2106187,-0.569937 -0.2425265,-0.751965 -0.1500504,-0.856012 0.1172714,-0.131944 4.3049975,-1.40833 4.4005178,-1.341243 0.1777912,0.124869 0.2282115,0.471235 0.2296475,1.577582 0.00132,1.015194 -0.00582,1.094217 -0.1394421,1.543232 -0.1291887,0.434126 -0.2680482,0.716966 -0.5967594,1.215529 l -0.1219846,0.185016 0.2653371,1.081548 c 0.1459354,0.594851 0.2561246,1.091926 0.2448648,1.10461 -0.016472,0.01856 -1.1034454,0.363017 -1.1493723,0.364235 -0.00706,1.87e-4 -0.014171,-0.0062 -0.015804,-0.01412 z m 0.066417,-2.599123 c 0.3135538,-0.105828 0.6770108,-0.512359 0.8862674,-0.991301 0.2633858,-0.602832 0.3465927,-1.127642 0.3241164,-2.044297 -0.019669,-0.802157 -0.062012,-0.946488 -0.3029501,-1.032633 -0.1362202,-0.0487 -3.5398203,1.015893 -3.6520348,1.142305 -0.1406141,0.158404 -0.1098985,0.410724 0.109965,0.903334 0.667332,1.495176 1.7453264,2.322745 2.6346361,2.022592 z"
         id="path151" /><path
         style="fill:#c17e28"
         d="M 11.950954,34.568674 C 11.431469,34.385705 10.205619,34.321538 9.6662591,34.449083 L 9.3325396,34.527999 9.1431133,34.107106 8.9536871,33.686213 h 2.0000779 2.000077 l -0.136223,0.302834 c -0.18612,0.413759 -0.372442,0.73966 -0.418071,0.731261 -0.02082,-0.0038 -0.222691,-0.07207 -0.448594,-0.151634 z M 3.5052835,29.348442 3.171564,29.31057 l 0.3465549,-0.01 c 0.2027166,-0.0058 0.3465549,0.01402 0.3465549,0.04785 0,0.03181 -0.00578,0.05335 -0.012835,0.04785 -0.00706,-0.0055 -0.1630092,-0.02702 -0.3465549,-0.04785 z m 2.3488719,-0.04325 c 0.4023888,-0.0098 1.060843,-0.0098 1.4632317,0 0.4023888,0.0098 0.073162,0.01777 -0.7316158,0.01777 -0.8047774,0 -1.1340046,-0.008 -0.7316159,-0.01777 z m 4.1586586,0 c 0.402389,-0.0098 1.060843,-0.0098 1.463232,0 0.402388,0.0098 0.07316,0.01777 -0.731616,0.01777 -0.8047776,0 -1.1340048,-0.008 -0.731616,-0.01777 z m 3.592757,0.0015 c 0.09114,-0.01278 0.252869,-0.01299 0.35939,-4.66e-4 0.106522,0.01252 0.03195,0.02297 -0.165714,0.02323 -0.197665,2.57e-4 -0.284819,-0.01 -0.193676,-0.02276 z M 4.2754055,28.088971 c 0,-1.786487 0.5683656,-3.263962 1.5160538,-3.941004 l 0.2496592,-0.178361 h 2.8367492 2.8367493 l 0.408627,0.145417 c 1.286704,0.457894 1.963939,1.650112 2.044697,3.599525 l 0.03175,0.76634 H 9.2375465 4.2754055 Z M 6.3661454,27.465914 C 6.6808349,27.289258 6.8907542,26.997928 6.9787659,26.615709 7.2349494,25.503148 6.2249615,24.590271 5.3076133,25.10524 c -0.8647909,0.485464 -0.8647909,1.870224 0,2.355688 0.3610964,0.202708 0.7034448,0.20432 1.0585321,0.005 z m 2.8326619,-0.005 c 0.160342,-0.09001 0.3306191,-0.244357 0.4159189,-0.377008 0.7330388,-1.139955 -0.3659487,-2.605942 -1.4833324,-1.97868 -0.8539568,0.479382 -0.8606434,1.846799 -0.011475,2.346534 0.366013,0.215398 0.7063479,0.218286 1.078888,0.0092 z m 2.8327877,-0.0066 c 0.865509,-0.493851 0.851611,-1.903598 -0.02329,-2.362514 -0.551787,-0.289431 -1.186449,-0.09423 -1.489612,0.458166 -0.6476848,1.180143 0.422116,2.526742 1.512903,1.904348 z M 6.9451615,22.551361 c 0,-0.524501 0.00583,-0.553686 0.1226922,-0.613665 0.2194398,-0.112633 0.2495702,-0.292256 0.1343204,-0.800753 -0.056643,-0.249918 -0.1028102,-0.476087 -0.1025927,-0.502597 2.174e-4,-0.02651 0.09232,-0.107335 0.2046722,-0.179611 0.1215979,-0.07822 0.2172003,-0.189416 0.236207,-0.274726 0.017562,-0.07882 0.042,-0.143315 0.054309,-0.143315 0.012308,0 0.1672425,0.123627 0.3442985,0.274726 l 0.3219201,0.274725 -0.19584,0.341737 c -0.2249147,0.392472 -0.2363745,0.481085 -0.089431,0.691528 0.1120684,0.160497 0.3564898,0.205921 0.5096882,0.09472 0.05885,-0.04272 0.1271579,0.0052 0.2896466,0.203315 0.1729038,0.21078 0.2457637,0.259214 0.3899391,0.259214 0.2613826,0 0.4401344,-0.274219 0.3509687,-0.538413 -0.024605,-0.0729 -0.1511307,-0.272963 -0.2811688,-0.44458 -0.1300381,-0.171618 -0.2190012,-0.329756 -0.1976958,-0.351419 0.021305,-0.02166 0.1770784,-0.09661 0.3461623,-0.166539 0.3987524,-0.164925 0.4183458,-0.186074 0.6027151,-0.650575 L 10.14208,19.631836 h 0.859484 0.859484 l -0.198034,0.448236 c -0.296586,0.6713 -0.409676,1.232904 -0.442571,2.197804 l -0.0281,0.824176 H 9.0687532 6.9451615 Z m -9.4328456,-5.695699 c 0,-0.143146 0.010012,-0.201706 0.02225,-0.130133 0.012237,0.07157 0.012237,0.188693 0,0.260267 -0.012237,0.07157 -0.02225,0.01301 -0.02225,-0.130134 z"
         id="path150" /><path
         style="fill:#aa8f27"
         d="m 5.8060228,26.764107 c 0.037062,-0.01671 0.081344,-0.01465 0.098405,0.0046 0.01706,0.01922 -0.013263,0.03289 -0.067386,0.03038 -0.05981,-0.0028 -0.071975,-0.01648 -0.031019,-0.03494 z m 2.8237805,0 c 0.037062,-0.01671 0.081344,-0.01465 0.098404,0.0046 0.01706,0.01922 -0.013263,0.03289 -0.067386,0.03038 -0.05981,-0.0028 -0.071976,-0.01648 -0.031019,-0.03494 z m 2.8237807,0 c 0.03706,-0.01671 0.08134,-0.01465 0.0984,0.0046 0.01706,0.01922 -0.01326,0.03289 -0.06738,0.03038 -0.05981,-0.0028 -0.07198,-0.01648 -0.03102,-0.03494 z M 5.8060228,25.780879 c 0.037062,-0.01671 0.081344,-0.01465 0.098405,0.0046 0.01706,0.01922 -0.013263,0.03289 -0.067386,0.03038 -0.05981,-0.0028 -0.071975,-0.01648 -0.031019,-0.03494 z m 2.8237805,0 c 0.037062,-0.01671 0.081344,-0.01465 0.098404,0.0046 0.01706,0.01922 -0.013263,0.03289 -0.067386,0.03038 -0.05981,-0.0028 -0.071976,-0.01648 -0.031019,-0.03494 z"
         id="path149" /><path
         style="fill:#6f6f6f"
         d="m 15.841218,40.568809 c 0,-0.143147 0.01001,-0.201707 0.02225,-0.130133 0.01224,0.07157 0.01224,0.188693 0,0.260266 -0.01224,0.07157 -0.02225,0.01301 -0.02225,-0.130133 z m -14.1228767,-7.2007 c 0.00105,-0.09543 0.012553,-0.127468 0.02557,-0.07119 0.013017,0.05627 0.012161,0.134353 -0.0019,0.173511 -0.014064,0.03916 -0.024714,-0.0069 -0.023668,-0.102316 z m -2.08933823,-0.896472 c 0.0511097,-0.06362 0.1044786,-0.115674 0.1185975,-0.115674 0.0141189,0 -0.0161463,0.05205 -0.067256,0.115674 -0.0511097,0.06362 -0.1044786,0.115674 -0.1185975,0.115674 -0.0141189,0 0.0161463,-0.05205 0.067256,-0.115674 z M 14.917773,28.104948 c 3.85e-4,-0.159052 0.01036,-0.217254 0.02216,-0.129338 0.0118,0.08792 0.01149,0.218049 -7.01e-4,0.289185 -0.01219,0.07114 -0.02184,-7.96e-4 -0.02146,-0.159847 z M 2.3897549,28.076029 c 0,-0.143146 0.010012,-0.201706 0.02225,-0.130133 0.012237,0.07157 0.012237,0.188693 0,0.260266 -0.012237,0.07157 -0.02225,0.01301 -0.02225,-0.130133 z m 11.3532721,-3.831697 -0.0978,-0.130133 0.115519,0.110178 c 0.06353,0.0606 0.115518,0.119159 0.115518,0.130133 0,0.04628 -0.04132,0.01211 -0.133232,-0.110178 z m -20.304556,-4.5402 -0.1244679,-0.159052 0.1411891,0.140215 c 0.077654,0.07712 0.141189,0.148692 0.141189,0.159052 0,0.04536 -0.041576,0.0084 -0.1579102,-0.140215 z"
         id="path148" /><path
         style="fill:#b07327"
         d="m 4.2854144,27.353067 c 0.00105,-0.09543 0.012553,-0.127468 0.02557,-0.07119 0.013017,0.05627 0.012161,0.134353 -0.0019,0.173511 -0.014064,0.03916 -0.024714,-0.0069 -0.023668,-0.102316 z m 2.3003569,-0.05075 c 0,-0.01201 0.040431,-0.05756 0.089847,-0.101214 0.081431,-0.07194 0.083246,-0.0699 0.019384,0.02184 -0.067071,0.09634 -0.1092318,0.12698 -0.1092318,0.07938 z m 1.2016463,-0.108296 -0.097805,-0.130133 0.1155183,0.110178 c 0.063535,0.0606 0.1155183,0.119159 0.1155183,0.130134 0,0.04628 -0.041319,0.01211 -0.1332316,-0.110179 z m 2.8477804,0.02892 c -0.06386,-0.09173 -0.06205,-0.09378 0.01938,-0.02184 0.04942,0.04366 0.08985,0.0892 0.08985,0.101214 0,0.0476 -0.04216,0.01696 -0.109232,-0.07938 z M 4.3308002,26.885552 c 0.00246,-0.06738 0.014629,-0.08108 0.031019,-0.03494 0.014831,0.04175 0.013007,0.09164 -0.00405,0.110854 -0.01706,0.01922 -0.029195,-0.01494 -0.026966,-0.07591 z m 2.6697561,-0.578369 c 0.00246,-0.06738 0.014629,-0.08108 0.031019,-0.03494 0.014831,0.04175 0.013007,0.09164 -0.00405,0.110854 -0.01706,0.01922 -0.029195,-0.01494 -0.026965,-0.07591 z m 0.4620731,-0.05784 c 0.00246,-0.06738 0.014629,-0.08108 0.031019,-0.03494 0.014831,0.04175 0.013007,0.09164 -0.00405,0.110854 -0.01706,0.01922 -0.029195,-0.01494 -0.026966,-0.07591 z m -0.804724,-0.906112 -0.097805,-0.130133 0.1155182,0.110178 c 0.1085587,0.103541 0.1388911,0.150088 0.097805,0.150088 -0.00974,0 -0.061726,-0.05856 -0.1155182,-0.130133 z m 1.1343903,0.01446 c 0.05111,-0.06362 0.1044786,-0.115674 0.1185975,-0.115674 0.014119,0 -0.016146,0.05205 -0.067256,0.115674 -0.05111,0.06362 -0.1044786,0.115674 -0.1185975,0.115674 -0.014119,0 0.016146,-0.05205 0.067256,-0.115674 z m 2.7981093,0.036 c 0,-0.01201 0.04043,-0.05756 0.08985,-0.101214 0.08143,-0.07194 0.08325,-0.0699 0.01938,0.02184 -0.06707,0.09634 -0.109232,0.12698 -0.109232,0.07938 z m -5.5448776,-0.52053 c 0,-0.01201 0.040431,-0.05756 0.089848,-0.101215 0.08143,-0.07194 0.083246,-0.0699 0.019384,0.02184 -0.067071,0.09634 -0.1092318,0.12698 -0.1092318,0.07938 z m 0.4107317,-0.462696 c 0,-0.01201 0.040431,-0.05756 0.089848,-0.101214 0.08143,-0.07194 0.083246,-0.0699 0.019384,0.02184 -0.067071,0.09634 -0.1092318,0.12698 -0.1092318,0.07938 z M 8.8382468,22.01761 c -0.063862,-0.09173 -0.062046,-0.09378 0.019384,-0.02184 0.085522,0.07556 0.1127191,0.123051 0.070463,0.123051 -0.010661,0 -0.051093,-0.04555 -0.089847,-0.101214 z"
         id="path147" /><path
         style="fill:#9e672f"
         d="m -5.3323834,40.091654 c -0.061438,-0.135194 -0.1297789,-0.335356 -0.1518691,-0.444806 -0.03648,-0.180747 -0.022799,-0.217451 0.1491679,-0.400192 0.2649261,-0.281526 0.6923274,-0.489813 1.0621365,-0.517616 l 0.3080488,-0.02316 0.013889,-0.262995 c 0.027738,-0.525221 0.3310478,-1.048487 0.7562326,-1.304643 0.1571104,-0.09465 0.2967909,-0.124039 0.594453,-0.125065 0.3444677,-0.0012 0.4178607,0.0187 0.6399954,0.17341 0.1379996,0.09611 0.326793,0.286829 0.4195409,0.423814 l 0.1686326,0.249064 v -0.226652 c 0,-0.321907 0.12104,-0.73363 0.2770968,-0.942557 0.073499,-0.0984 0.13363495,-0.210532 0.13363495,-0.249184 0,-0.08075 0.37238786,-0.49218 0.56873589,-0.628371 0.54994396,-0.381452 1.38615527,-0.352156 1.94475896,0.06814 l 0.2287997,0.172147 0.090565,-0.332339 C 2.0520888,35.057713 2.5416929,34.615891 3.15,34.56686 c 0.3242483,-0.02613 0.385672,-0.01212 0.6923897,0.15798 0.2304103,0.127782 0.3857865,0.262505 0.4925865,0.427111 0.1389859,0.214213 0.1822067,0.309488 0.2770713,0.61077 0.016393,0.05206 0.0797,-0.01506 0.176686,-0.187339 0.9075616,-1.612129 2.940274,-1.618182 3.862098,-0.0115 0.1100988,0.191895 0.2392126,0.49881 0.2869195,0.682033 0.065301,0.250795 0.1057744,0.324882 0.163752,0.299751 0.6105931,-0.264672 1.900722,-0.310629 2.614983,-0.09315 0.560115,0.170543 1.084964,0.446132 1.572053,0.825457 0.915802,0.71319 1.819915,2.151476 1.819915,2.895169 v 0.164319 H 4.9438879 -5.2206783 Z M 4.8286833,32.834072 c 0.1207571,-0.01222 0.3055863,-0.01205 0.4107317,3.82e-4 0.1051454,0.01243 0.00634,0.02242 -0.2195583,0.02221 -0.2259025,-2.1e-4 -0.3119305,-0.01038 -0.1911734,-0.0226 z m 3.7465697,-7.16e-4 c 0.2894375,-0.01031 0.7630625,-0.01031 1.0525,0 0.2894375,0.01031 0.052625,0.01874 -0.52625,0.01874 -0.578875,0 -0.8156875,-0.0084 -0.52625,-0.01874 z m 3.668668,3.08e-4 c 0.18937,-0.0111 0.512821,-0.01117 0.718781,-1.64e-4 0.205959,0.01101 0.05102,0.02009 -0.344309,0.02018 -0.395329,9.1e-5 -0.563841,-0.0089 -0.374472,-0.02001 z M -1.3305112,31.91233 c -0.096507,-0.121069 -2.2183878,-8.724798 -2.1797286,-8.838288 0.023742,-0.0697 0.5295581,-0.241701 0.5715786,-0.194364 0.044195,0.04979 2.13126183,8.664813 2.13126183,8.797456 0,0.171479 -0.0841922,0.261129 -0.28845103,0.307149 -0.1081972,0.02438 -0.1739439,0.0042 -0.2346608,-0.07195 z m 4.4920686,-4.197782 c 0.061221,-1.552159 0.5072308,-2.628668 1.3404318,-3.235324 0.3366436,-0.245111 1.0110931,-0.509618 1.299442,-0.509618 h 0.185847 L 5.7501563,24.14654 C 5.371028,24.429435 4.9678987,24.96463 4.7394092,25.488409 4.4390941,26.176837 4.3231778,26.742905 4.2894746,27.68563 l -0.028431,0.795258 H 3.6961874 3.1313314 Z M 6.1097583,22.277876 C 6.0765912,21.305011 5.9625204,20.737397 5.6680759,20.080072 5.4681872,19.633836 5.4678335,19.631836 5.5888046,19.631836 c 0.095588,0 0.1857611,0.107971 0.4226493,0.506073 0.2507229,0.421351 0.3211109,0.59766 0.4204531,1.053153 0.1249307,0.57282 0.2811674,0.84871 0.4519745,0.798119 0.078147,-0.02315 0.085306,0.03189 0.070706,0.543558 L 6.938342,23.102052 H 6.5380991 6.1378562 Z"
         id="path146" /><path
         style="fill:#895524"
         d="M 14.992458,39.592315 C 14.928808,39.318135 14.434171,38.492279 14.072665,38.056617 13.418799,37.268625 12.627493,36.729898 11.716486,36.452516 11.002225,36.235038 9.7120961,36.280995 9.101503,36.545666 9.043525,36.570796 9.003052,36.496706 8.937751,36.245915 8.6159122,35.009862 7.4820304,34.184978 6.3795342,34.384847 5.7461214,34.499676 5.1382522,34.954521 4.7889291,35.575034 L 4.6379853,35.84316 4.5835257,35.675618 C 4.553573,35.58347 4.5205967,35.48205 4.5102451,35.450239 4.4296215,35.202484 4.1437275,34.891957 3.8423897,34.72484 3.535672,34.55474 3.4742483,34.540725 3.15,34.56686 2.5416929,34.615891 2.0520888,35.057713 1.8714354,35.720644 L 1.7808708,36.052983 1.5520711,35.880836 C 1.1038548,35.5436 0.54387967,35.451864 0.01452702,35.628953 c -0.33325838,0.111488 -0.471757,0.20421 -0.76344035,0.511107 l -0.22389201,0.23557 0.0219168,-0.321241 c 0.0275482,-0.403783 0.18790103,-0.7814 0.46131495,-1.086357 0.54608991,-0.609089 1.27584526,-0.677091 1.92610649,-0.179483 0.1636086,0.125201 0.3505035,0.2277 0.4153221,0.227775 0.1629168,1.91e-4 0.3696425,-0.248017 0.3710195,-0.445469 0.00288,-0.413418 0.3772774,-0.936587 0.7547556,-1.054676 0.2868924,-0.08975 0.4222118,-0.0751 0.7124568,0.07715 0.2889169,0.151549 0.4519089,0.3693 0.5812348,0.776506 0.051694,0.162769 0.1366652,0.301388 0.2151742,0.351029 0.222905,0.140942 0.3733454,0.0467 0.6360317,-0.398425 0.4309959,-0.730331 1.0249597,-1.080559 1.7443542,-1.02855 0.8257791,0.0597 1.4599988,0.641695 1.7281255,1.585825 0.1870511,0.658645 0.2457787,0.688239 0.9475208,0.477467 0.5708969,-0.171472 1.5256259,-0.171054 2.1003769,9.19e-4 0.823627,0.246441 1.531745,0.721126 2.133821,1.430399 0.420509,0.49538 0.619395,0.822365 0.877305,1.442361 0.190941,0.459006 0.440623,1.389546 0.388575,1.448178 -0.01309,0.01474 -0.03565,-0.02428 -0.05015,-0.08672 z M -5.530814,39.30702 c 0,-0.277589 0.1602613,-0.791214 0.3281475,-1.051689 0.2386867,-0.370321 0.6148577,-0.587512 1.0786304,-0.622771 0.4336517,-0.03297 0.5441977,-0.117629 0.5441977,-0.41676 0,-0.390358 0.1395163,-0.783025 0.3567741,-1.004137 0.4617461,-0.469937 1.0971156,-0.383184 1.4227623,0.194262 0.1991482,0.353136 0.2711741,0.416526 0.4469993,0.393402 l 0.1628175,-0.02141 -0.089159,0.290472 c -0.049038,0.15976 -0.089913,0.403109 -0.090835,0.540776 l -0.00168,0.250303 -0.1686326,-0.249064 C -1.633536,37.473416 -1.8223294,37.2827 -1.960329,37.186587 c -0.2221347,-0.15471 -0.2955277,-0.174596 -0.6399954,-0.17341 -0.2976621,10e-4 -0.4373426,0.03041 -0.594453,0.125065 -0.4251848,0.256156 -0.7284946,0.779422 -0.7562326,1.304643 l -0.013889,0.262995 -0.3080488,0.02316 c -0.3712948,0.02792 -0.7974246,0.236318 -1.0653354,0.521014 l -0.1925305,0.204593 z m 9.7429621,-6.472441 c 0.092279,-0.01287 0.2309005,-0.01261 0.3080488,5.9e-4 0.077148,0.0132 0.00165,0.02373 -0.1677792,0.0234 -0.1694269,-3.25e-4 -0.2325482,-0.01112 -0.1402696,-0.02399 z m 7.1813989,-0.0025 c -0.01341,-0.02444 0.07187,-0.03608 0.1895,-0.02586 0.345496,0.03002 0.387541,0.05639 0.101394,0.06359 -0.146581,0.0037 -0.277484,-0.01329 -0.290894,-0.03773 z m -17.2362956,-13.937638 -0.1244678,-0.159052 0.141189,0.140215 c 0.077654,0.07712 0.1411891,0.148691 0.1411891,0.159052 0,0.04536 -0.041576,0.0084 -0.1579103,-0.140215 z"
         id="path145" /><path
         style="fill:#4f4f4f"
         d="m 1.7164389,33.107843 c 0,-0.07953 0.011653,-0.112059 0.025896,-0.0723 0.014243,0.03976 0.014243,0.10483 0,0.144592 -0.014243,0.03976 -0.025896,0.0072 -0.025896,-0.0723 z M -1.7788339,17.111109 c 0.00246,-0.06738 0.014629,-0.08108 0.031019,-0.03494 0.014831,0.04175 0.013007,0.09164 -0.00405,0.110854 -0.01706,0.01922 -0.029195,-0.01494 -0.026965,-0.07591 z m 0.00405,-0.544631 c 0,-0.07953 0.011653,-0.112059 0.025896,-0.0723 0.014243,0.03976 0.014243,0.104829 0,0.144592 -0.014243,0.03976 -0.025896,0.0072 -0.025896,-0.0723 z"
         id="path144" /><path
         style="fill:#6d4918"
         d="m 13.668129,36.650356 -0.176931,-0.216889 0.192531,0.199316 c 0.105891,0.109624 0.19253,0.207224 0.19253,0.216889 0,0.04416 -0.04345,0.0026 -0.20813,-0.199316 z M -1.0027563,36.317794 c 0.00105,-0.09543 0.0125529,-0.127469 0.0255702,-0.0712 0.0130173,0.05627 0.0121612,0.134353 -0.001902,0.173511 -0.0140636,0.03916 -0.0247141,-0.0069 -0.0236678,-0.102315 z m -2.3203747,-0.05076 c 0,-0.01201 0.040431,-0.05756 0.089847,-0.101214 0.08143,-0.07194 0.083246,-0.0699 0.019384,0.02184 -0.067071,0.09634 -0.1092318,0.12698 -0.1092318,0.07938 z m 13.54452,-1.058737 c 0.03706,-0.01671 0.08134,-0.01465 0.0984,0.0046 0.01706,0.01922 -0.01326,0.03289 -0.06739,0.03038 -0.05981,-0.0028 -0.07198,-0.01648 -0.03102,-0.03494 z M -0.49935059,34.936789 c 0,-0.01201 0.0404314,-0.05756 0.0898476,-0.101215 0.0814304,-0.07194 0.0832464,-0.0699 0.0193842,0.02184 -0.0670709,0.09634 -0.1092318,0.12698 -0.1092318,0.07938 z M 14.201155,28.104948 c 2.28e-4,-0.222673 0.0095,-0.306679 0.02062,-0.18668 0.01111,0.119998 0.01093,0.302184 -4.14e-4,0.404858 -0.01134,0.102674 -0.02044,0.0045 -0.02021,-0.218178 z m -6.7554142,-4.17868 c 0.7694802,-0.009 2.0286295,-0.009 2.7981102,0 0.76948,0.009 0.139905,0.01636 -1.3990553,0.01636 -1.5389604,0 -2.1685351,-0.0074 -1.3990549,-0.01636 z"
         id="path143" /><path
         style="fill:#513411"
         d="m -1.9434604,36.18766 c -0.063862,-0.09173 -0.062046,-0.09378 0.019384,-0.02184 0.049416,0.04366 0.089848,0.0892 0.089848,0.101214 0,0.0476 -0.042161,0.01696 -0.1092318,-0.07938 z M 10.991511,35.208301 c 0.03706,-0.01671 0.08134,-0.01465 0.0984,0.0046 0.01706,0.01922 -0.01326,0.03289 -0.06739,0.03038 -0.05981,-0.0028 -0.07198,-0.01648 -0.03102,-0.03494 z m -2.8960446,-1.3052 -0.097805,-0.130133 0.1155183,0.110179 c 0.063535,0.0606 0.1155183,0.119158 0.1155183,0.130133 0,0.04628 -0.041319,0.01211 -0.1332316,-0.110179 z M 2.504125,33.801887 c 0.05111,-0.06362 0.1044786,-0.115674 0.1185975,-0.115674 0.014119,0 -0.016146,0.05205 -0.067256,0.115674 -0.05111,0.06362 -0.1044786,0.115673 -0.1185975,0.115673 -0.014119,0 0.016146,-0.05205 0.067256,-0.115673 z M 9.8810408,33.64292 c 0.5558162,-0.0093 1.4799622,-0.0093 2.0536582,-2.8e-5 0.573697,0.0093 0.118938,0.01695 -1.010574,0.01696 -1.1295123,1.5e-5 -1.5989001,-0.0076 -1.0430842,-0.01694 z M 6.6499481,33.241486 c 0.049416,-0.01455 0.130279,-0.01455 0.1796951,0 0.049416,0.01455 0.00898,0.02645 -0.089847,0.02645 -0.098832,0 -0.1392637,-0.0119 -0.089848,-0.02645 z M 3.1064632,28.307377 c 0,-0.111336 0.010566,-0.156883 0.02348,-0.101215 0.012914,0.05567 0.012914,0.146762 0,0.20243 -0.012914,0.05567 -0.02348,0.01012 -0.02348,-0.101215 z m 0,-0.462696 c 0,-0.111336 0.010566,-0.156882 0.02348,-0.101214 0.012914,0.05567 0.012914,0.146761 0,0.202429 -0.012914,0.05567 -0.02348,0.01012 -0.02348,-0.101215 z m 2.6969494,-3.91598 c 0.063864,-0.01384 0.1562789,-0.01331 0.2053658,0.0012 0.049087,0.01448 -0.00317,0.0258 -0.1161169,0.02515 -0.1129512,-6.42e-4 -0.1531132,-0.01249 -0.089249,-0.02632 z m 1.5945627,-0.812152 c 0.7149714,-0.0091 1.8701543,-0.0091 2.5670732,1.9e-5 0.6969185,0.0091 0.1119425,0.01651 -1.299948,0.0165 -1.4118902,-1e-5 -1.9820965,-0.0074 -1.2671252,-0.01652 z"
         id="path142" /><path
         style="fill:#2e2e2e"
         d="m -5.5821554,37.481614 c 0,-0.01201 0.040431,-0.05756 0.089848,-0.101214 0.08143,-0.07194 0.083246,-0.0699 0.019384,0.02184 -0.067071,0.09634 -0.1092318,0.12698 -0.1092318,0.07938 z m 4.5693902,-3.130277 c 0.0663201,-0.07953 0.13213381,-0.144592 0.14625271,-0.144592 0.0141189,0 -0.0285912,0.06507 -0.0949113,0.144592 -0.0663201,0.07953 -0.13213381,0.144593 -0.14625271,0.144593 -0.014119,0 0.028591,-0.06507 0.094911,-0.144593 z m 0.93415527,-2.660499 c 0.0010463,-0.09543 0.01255291,-0.127469 0.0255702,-0.07119 0.01301729,0.05627 0.01216121,0.134353 -0.0019024,0.173511 -0.01406362,0.03916 -0.02471413,-0.0069 -0.0236678,-0.102316 z M 0.92537501,28.32691 c 0.0352972,-0.01605 0.0930564,-0.01605 0.12835369,0 0.035297,0.01604 0.00642,0.02917 -0.0641769,0.02917 -0.0705945,0 -0.0994741,-0.01313 -0.0641768,-0.02917 z M 4.5769054,19.761969 c -0.063862,-0.09173 -0.062046,-0.09378 0.019384,-0.02184 0.049416,0.04366 0.089848,0.0892 0.089848,0.101215 0,0.0476 -0.042161,0.01696 -0.1092318,-0.07938 z m 8.0671586,0.07938 c 0,-0.01201 0.04043,-0.05756 0.08985,-0.101215 0.08143,-0.07194 0.08325,-0.0699 0.01938,0.02184 -0.06707,0.09634 -0.109232,0.12698 -0.109232,0.07938 z M -4.0419115,18.800282 c 0,-0.01201 0.040431,-0.05756 0.089848,-0.101215 0.08143,-0.07194 0.083246,-0.0699 0.019384,0.02184 -0.067071,0.09634 -0.1092318,0.12698 -0.1092318,0.07938 z m 2.2709357,-1.94462 c 0,-0.111336 0.010566,-0.156882 0.02348,-0.101214 0.012914,0.05567 0.012914,0.146761 0,0.202429 -0.012914,0.05567 -0.02348,0.01012 -0.02348,-0.101215 z"
         id="path141" /><path
         style="fill:#36250c"
         d="m 4.6251692,34.745605 c 0.037062,-0.01671 0.081344,-0.01465 0.098404,0.0046 0.01706,0.01922 -0.013263,0.03289 -0.067386,0.03038 -0.05981,-0.0028 -0.071976,-0.01648 -0.031019,-0.03494 z m 6.5894398,-12.45327 c 0,-0.07953 0.01165,-0.112059 0.0259,-0.0723 0.01424,0.03976 0.01424,0.104829 0,0.144592 -0.01424,0.03976 -0.0259,0.0072 -0.0259,-0.0723 z M -4.4109283,19.708 c 0.037062,-0.01671 0.081344,-0.01465 0.098405,0.0046 0.01706,0.01922 -0.013263,0.03289 -0.067386,0.03038 -0.05981,-0.0028 -0.071976,-0.01648 -0.031019,-0.03494 z m 0.8310899,-0.329349 c 0,-0.01201 0.040431,-0.05756 0.089848,-0.101214 0.08143,-0.07194 0.083246,-0.0699 0.019384,0.02184 -0.067071,0.09634 -0.1092318,0.12698 -0.1092318,0.07938 z"
         id="path140" /><path
         style="fill:#281907"
         d="m -0.15279571,40.351923 c 2.80260211,-0.0083 7.38867831,-0.0083 10.19128071,0 2.802602,0.0083 0.509564,0.01502 -5.0956405,0.01502 -5.60520423,0 -7.8982423,-0.0068 -5.09564021,-0.01502 z m -4.94161579,-2.32794 c 0.05111,-0.06362 0.1044786,-0.115674 0.1185975,-0.115674 0.014119,0 -0.016146,0.05205 -0.067256,0.115674 -0.05111,0.06362 -0.1044786,0.115674 -0.1185975,0.115674 -0.014119,0 0.016146,-0.05205 0.067256,-0.115674 z M 5.3535762,33.888642 c 0.06632,-0.07953 0.1321338,-0.144592 0.1462527,-0.144592 0.014119,0 -0.028591,0.06507 -0.094911,0.144592 -0.06632,0.07953 -0.1321338,0.144592 -0.1462527,0.144592 -0.014119,0 0.028591,-0.06507 0.094911,-0.144592 z m -1.3654269,-0.101215 -0.097805,-0.130133 0.1155183,0.110179 c 0.1085587,0.103541 0.138891,0.150087 0.097805,0.150087 -0.00974,0 -0.061726,-0.05856 -0.1155183,-0.130133 z M 3.2389497,33.415356 c 0.037062,-0.01671 0.081344,-0.01465 0.098404,0.0046 0.01706,0.01922 -0.013263,0.03289 -0.067386,0.03038 -0.05981,-0.0028 -0.071976,-0.01648 -0.031019,-0.03494 z M 5.8758891,28.49536 c 1.5156166,-0.0085 4.0108117,-0.0085 5.5448779,-5e-6 1.534066,0.0085 0.294016,0.01547 -2.7556665,0.01547 -3.0496829,2e-6 -4.304828,-0.007 -2.7892114,-0.01547 z m 0.7098822,-1.250885 c 0,-0.01201 0.040431,-0.05756 0.089847,-0.101214 0.081431,-0.07194 0.083246,-0.0699 0.019384,0.02184 -0.067071,0.09634 -0.1092318,0.12698 -0.1092318,0.07938 z m 4.0494267,-0.07938 c -0.06386,-0.09173 -0.06205,-0.09378 0.01938,-0.02184 0.04942,0.04366 0.08985,0.0892 0.08985,0.101214 0,0.0476 -0.04216,0.01696 -0.109232,-0.07938 z m -4.0286341,-1.821863 -0.097805,-0.130133 0.1155183,0.110178 c 0.063535,0.0606 0.1155183,0.119158 0.1155183,0.130133 0,0.04629 -0.041319,0.01212 -0.1332316,-0.110178 z m 1.2370732,0.01446 c 0.05111,-0.06362 0.1044786,-0.115674 0.1185975,-0.115674 0.014119,0 -0.016146,0.05205 -0.067256,0.115674 -0.05111,0.06362 -0.1044786,0.115674 -0.1185975,0.115674 -0.014119,0 0.016146,-0.05205 0.067256,-0.115674 z m 2.7467679,0.09384 c 0,-0.01201 0.04043,-0.05756 0.08985,-0.101214 0.08143,-0.07194 0.08325,-0.0699 0.01938,0.02184 -0.06707,0.09634 -0.109232,0.12698 -0.109232,0.07938 z m 0.632007,-2.725418 c 2.88e-4,-0.190862 0.0099,-0.261969 0.0213,-0.158016 0.01143,0.103954 0.01119,0.260113 -5.24e-4,0.347022 -0.01172,0.08691 -0.02106,0.0019 -0.02078,-0.189006 z M 6.0804632,22.292335 c 0,-0.07953 0.011653,-0.112059 0.025896,-0.0723 0.014243,0.03976 0.014243,0.104829 0,0.144592 -0.014243,0.03976 -0.025896,0.0072 -0.025896,-0.0723 z m 2.809125,-0.274725 c -0.063862,-0.09173 -0.062046,-0.09378 0.019384,-0.02184 0.085522,0.07556 0.1127191,0.123051 0.070463,0.123051 -0.010661,0 -0.051093,-0.04555 -0.089848,-0.101214 z m 1.2321708,-2.401643 c 0.02193,-0.02463 0.442476,-0.03758 0.934538,-0.02878 l 0.894657,0.01601 -0.934537,0.02878 c -0.513996,0.01583 -0.916591,0.0086 -0.894658,-0.01601 z m -4.6526645,-0.024 c 0.049416,-0.01455 0.1302789,-0.01455 0.1796951,0 0.049416,0.01455 0.00898,0.02645 -0.089848,0.02645 -0.098832,0 -0.1392637,-0.0119 -0.089847,-0.02645 z m -8.2668996,-2.620631 c 0,-0.111336 0.010566,-0.156882 0.02348,-0.101214 0.012914,0.05567 0.012914,0.146761 0,0.202429 -0.012914,0.05567 -0.02348,0.01012 -0.02348,-0.101215 z m -0.00786,-0.322923 c 0.00246,-0.06738 0.014629,-0.08108 0.031019,-0.03494 0.014831,0.04175 0.013007,0.09164 -0.00405,0.110854 -0.01706,0.01922 -0.029195,-0.01494 -0.026965,-0.07591 z"
         id="path139" /><path
         style="fill:#000000"
         d="m -5.6286179,40.998335 c -0.2143835,-0.203214 -0.5090756,-0.898757 -0.5738422,-1.354403 -0.06428,-0.452222 7.148e-4,-0.956443 0.1832069,-1.421296 0.242351,-0.617329 0.9159276,-1.234467 1.4529451,-1.331203 0.2711748,-0.04885 0.2827427,-0.06193 0.384952,-0.435366 0.1084242,-0.396141 0.3317143,-0.754362 0.6009642,-0.964118 0.1111123,-0.08656 0.2028993,-0.182478 0.2039709,-0.213149 0.00107,-0.03067 -0.088281,-0.251898 -0.1985614,-0.491614 -0.4204435,-0.913918 -0.9357263,-2.439983 -1.1830721,-3.503795 -0.1197712,-0.515126 -0.089347,-0.768923 0.1268753,-1.058399 0.1530359,-0.204883 0.3152014,-0.278791 1.1733508,-0.534763 0.3636024,-0.108457 0.670747,-0.225469 0.6825434,-0.260026 0.018276,-0.05354 -1.4519095,-6.168807 -1.4856752,-6.179693 -0.00659,-0.0021 -0.081299,-0.04369 -0.1660123,-0.09237 C -4.5987693,23.059426 -4.6102,23.025723 -4.965824,21.569373 L -5.1776707,20.701819 -5.5211021,20.51798 c -0.652162,-0.349103 -1.2671904,-1.033477 -1.7687824,-1.968216 -0.2766537,-0.515557 -0.6023878,-1.378598 -0.640209,-1.696251 -0.053842,-0.452208 0.2256439,-0.959094 0.6175562,-1.120024 0.418888,-0.172008 4.343362,-1.364798 4.4862843,-1.363545 0.3672903,0.0032 0.7591017,0.362999 0.880426,0.808447 0.1181968,0.433966 0.175256,1.183083 0.1490058,1.956265 -0.03561,1.048875 -0.2083799,1.745987 -0.6033181,2.43434 l -0.2031451,0.354069 0.281845,1.156882 c 0.1550147,0.636286 0.2818449,1.182385 0.2818449,1.213554 0,0.03117 -0.048404,0.111199 -0.1075656,0.177845 l -0.1075657,0.121175 0.7576491,3.103235 c 0.4167069,1.706779 0.76356428,3.111945 0.77079405,3.12259 0.00723,0.01065 0.35637592,-0.08695 0.77588033,-0.216888 0.41950442,-0.129934 0.86655736,-0.236244 0.99345102,-0.236244 0.2817567,0 0.5630659,0.196001 0.6797652,0.473623 0.1924226,0.457764 0.5307715,2.261974 0.6474373,3.452391 0.029245,0.298405 0.062007,0.552506 0.072805,0.56467 0.010798,0.01216 0.1033004,-0.01727 0.2055614,-0.0654 0.102261,-0.04813 0.2386544,-0.08791 0.3030964,-0.0884 0.2449823,-0.0019 0.2500073,-0.05586 0.06598,-0.709112 C 2.2826928,29.383908 2.2370564,27.020237 2.8910026,25.431223 3.3338808,24.355081 4.0268228,23.678 5.0401454,23.331273 L 5.4172343,23.202245 5.3910892,22.356891 C 5.3505551,21.046289 5.1386553,20.378329 4.5531473,19.71549 4.1820269,19.295354 4.1417904,19.134766 4.3593415,18.94199 c 0.1226623,-0.108693 0.2043699,-0.119872 0.8761801,-0.119872 0.4074965,0 0.7819232,0.02473 0.8320595,0.05496 0.050136,0.03023 0.2139162,0.2656 0.3639554,0.523051 0.3070646,0.526889 0.4111666,0.570811 0.4791888,0.202176 0.1069373,-0.579529 0.1413542,-0.669188 0.2796084,-0.728402 0.1822328,-0.07805 0.2282751,-0.04946 0.9789921,0.607881 0.3485556,0.305202 0.6518576,0.554912 0.6740044,0.554912 0.022147,0 0.1238221,-0.03933 0.2259452,-0.0874 0.1545033,-0.07272 0.2201299,-0.164587 0.3908723,-0.54714 0.1128568,-0.252858 0.2500889,-0.48681 0.3049604,-0.519891 0.062472,-0.03766 0.6550129,-0.06015 1.5851199,-0.06015 1.424952,0 1.490855,0.0049 1.620632,0.119872 0.221232,0.196038 0.180063,0.366781 -0.185634,0.769885 -0.57752,0.636594 -0.799841,1.33366 -0.844694,2.648448 l -0.02895,0.848787 0.225054,0.06415 c 1.881537,0.536304 2.837647,2.32781 2.748397,5.149793 -0.03249,1.02738 -0.113886,1.64001 -0.362524,2.728635 -0.257672,1.128174 -0.561414,2.041518 -1.021559,3.071805 -0.224324,0.502271 -0.399148,0.920322 -0.388499,0.929004 0.01065,0.0087 0.181087,0.143177 0.378752,0.298879 1.378318,1.085709 2.237085,2.852174 2.321057,4.774361 l 0.02923,0.669074 -0.142402,0.126184 -0.142402,0.126185 H 5.0425427 -5.4715941 Z M 15.141552,40.307596 C 15.191911,40.159757 15.0186,39.16887 14.851261,38.6479 14.609819,37.896224 14.243067,37.268436 13.675855,36.635897 13.112209,36.007335 12.677377,35.703116 11.925283,35.411156 11.454561,35.228423 11.408871,35.221764 10.616076,35.220353 9.9133914,35.219103 9.7395093,35.237472 9.4135222,35.347394 8.8895662,35.524071 8.81596,35.480068 8.6362987,34.882757 8.5615555,34.634262 8.4332098,34.32325 8.351086,34.191619 7.9588987,33.563008 7.2580101,33.179391 6.6089271,33.238084 5.9949674,33.293602 5.314704,33.785873 5.0528172,34.364159 4.9161759,34.665884 4.8281817,34.738735 4.6269158,34.716765 4.5070112,34.703676 4.4404609,34.65659 4.3965361,34.553767 4.3625639,34.474241 4.2797179,34.279279 4.2124339,34.120519 3.8563478,33.280313 2.8671249,33.198054 2.3803388,33.968171 c -0.057901,0.0916 -0.1404351,0.319395 -0.1834084,0.506206 -0.1163745,0.505895 -0.3370324,0.620366 -0.6603436,0.342565 -0.64464552,-0.553902 -1.49389362,-0.506181 -2.05592444,0.115527 -0.2594948,0.287048 -0.44546923,0.752493 -0.479773,1.200745 -0.0327066,0.427381 -0.0810887,0.548286 -0.24801626,0.619781 -0.1768412,0.07574 -0.3343534,-0.02123 -0.471954,-0.29057 -0.3135009,-0.613635 -1.0334498,-0.776726 -1.479819,-0.335225 -0.2514932,0.248751 -0.3809385,0.559293 -0.3809385,0.91388 0,0.235157 -0.025263,0.322577 -0.1260199,0.436081 -0.1073344,0.120914 -0.1743535,0.141964 -0.4519926,0.141964 -0.5697625,0 -1.007629,0.342128 -1.2693169,0.991784 -0.1918858,0.476369 -0.1103777,1.34005 0.1612609,1.708764 0.045536,0.06181 1.9119755,0.07562 10.2166492,0.07562 9.0333367,0 10.1642497,-0.0097 10.1908097,-0.0877 z M -1.4514226,35.103232 c 0.51246857,-1.179966 1.72203388,-1.746362 2.7706288,-1.297385 0.1434248,0.06141 0.2752973,0.111668 0.2930498,0.111684 0.017753,1.6e-5 0.061604,-0.07973 0.097447,-0.17721 C 1.8230735,33.431994 1.6987672,31.946531 1.4486603,30.620855 1.2755927,29.70352 1.1339731,29.167149 1.055926,29.133411 c -0.0675007,-0.02918 -1.40207792,0.352185 -1.53469246,0.438549 -0.0384308,0.02503 0.0141895,0.322671 0.1649836,0.933221 0.24912996,1.008701 0.27355589,1.343675 0.12232922,1.677606 -0.27856565,0.615116 -1.12384786,0.809954 -1.59135036,0.366809 -0.2211188,-0.209599 -0.3134266,-0.448158 -0.5366827,-1.386998 -0.106911,-0.449584 -0.2109835,-0.847682 -0.2312721,-0.884663 -0.026673,-0.04862 -0.2453116,-0.0024 -0.7895205,0.166759 -0.4139477,0.128699 -0.7642608,0.233998 -0.7784736,0.233998 -0.1884574,0 0.4358939,2.081618 1.0608003,3.536761 l 0.3638889,0.847343 0.2649413,0.03729 c 0.1457177,0.02051 0.379612,0.09912 0.5197651,0.1747 0.1401531,0.07558 0.2694403,0.139463 0.287305,0.141972 0.017865,0.0025 0.094648,-0.138578 0.1706297,-0.313526 z M 12.653687,34.423634 c 0.207862,-0.406194 0.349767,-0.715941 0.349767,-0.763468 0,-0.01748 -0.926071,-0.03179 -2.057937,-0.03179 -1.1318652,0 -2.0502356,0.02125 -2.040823,0.04721 0.00941,0.02597 0.097977,0.235412 0.196809,0.465436 l 0.1796951,0.418223 0.2053658,-0.03487 c 0.6818711,-0.115796 1.0708861,-0.146869 1.4117431,-0.112762 0.455282,0.04556 0.971814,0.160413 1.258013,0.279734 0.112951,0.04709 0.229445,0.08745 0.258875,0.08969 0.02943,0.0022 0.136751,-0.158591 0.238492,-0.357405 z M 5.6251642,32.753712 c 0.1188857,-0.06753 0.2245367,-0.131194 0.2347798,-0.141474 0.027664,-0.02776 -1.3307015,-2.85925 -1.3706381,-2.85707 -0.018813,10e-4 -0.2261943,0.406177 -0.4608476,0.900333 l -0.4266422,0.898465 0.1396727,0.473294 c 0.07682,0.260313 0.1709285,0.557882 0.20913,0.661265 l 0.069457,0.18797 h 0.694466 c 0.6057619,0 0.7220757,-0.01568 0.9106224,-0.122783 z M 9.8778874,32.22583 C 9.0134086,30.403599 8.7055481,29.782219 8.6672086,29.782219 c -0.06704,0 -1.3166382,2.648206 -1.2885318,2.730716 0.013934,0.04091 0.05494,0.07471 0.091123,0.07512 0.036183,4.09e-4 0.1813064,0.06342 0.3224955,0.140031 0.2448887,0.132873 0.3059133,0.139496 1.3254896,0.143848 l 1.0687831,0.0046 z m 3.5085096,0.462695 c 0.03831,-0.103383 0.133673,-0.39717 0.211917,-0.65286 l 0.142262,-0.464891 -0.432738,-0.90734 c -0.238005,-0.499038 -0.447787,-0.907969 -0.466182,-0.908737 -0.03405,-0.0014 -1.481129,3.009957 -1.481129,3.082236 0,0.02176 0.440149,0.03956 0.978108,0.03956 h 0.978107 z M 7.3302225,30.897107 c 0.3953293,-0.832508 0.7264817,-1.534542 0.7358943,-1.560076 0.00941,-0.02553 -0.6567429,-0.04643 -1.4803455,-0.04643 -0.963314,0 -1.4913548,0.02038 -1.4803455,0.05713 0.038897,0.129853 1.4567497,3.064113 1.4803455,3.06359 0.014119,-3.13e-4 0.3491219,-0.681712 0.7444512,-1.51422 z M 11.586416,30.71799 c 0.361233,-0.757739 0.646505,-1.38929 0.633938,-1.403447 -0.01257,-0.01416 -0.684162,-0.01883 -1.492432,-0.01038 l -1.4695826,0.01536 0.7045391,1.475171 c 0.3874965,0.811345 0.7244165,1.50972 0.7487115,1.551944 0.05487,0.09535 0.03784,0.127045 0.874826,-1.628649 z m -12.45658062,1.200916 c 0.0627587,-0.04952 0.11392562,-0.147119 0.11370427,-0.216888 -2.2134e-4,-0.06977 -0.48149205,-2.091864 -1.06949045,-4.493543 -1.0586785,-4.324171 -1.0703346,-4.366597 -1.1971253,-4.357188 -0.2347091,0.01742 -0.5567623,0.138659 -0.5567623,0.209603 0,0.183733 2.1299178,8.758525 2.1974918,8.846837 0.096108,0.125602 0.3598713,0.131359 0.51218198,0.01118 z M 3.6822515,29.796678 3.9243308,29.290605 H 3.5399186 c -0.3387278,0 -0.3822757,0.01203 -0.3664346,0.101215 0.00989,0.05567 0.045444,0.283401 0.079013,0.506073 0.03357,0.222672 0.072132,0.426646 0.085693,0.453276 0.035937,0.07057 0.075786,0.0063 0.3440615,-0.554491 z m 10.4085415,0.05784 0.07142,-0.534991 -0.167293,-0.01786 c -0.09201,-0.0098 -0.257058,-0.0098 -0.366771,0 l -0.199477,0.01786 0.25399,0.534991 c 0.139695,0.294246 0.2726,0.534992 0.295346,0.534992 0.02274,0 0.0735,-0.240746 0.11278,-0.534992 z m 0.110069,-2.096589 c -0.02448,-2.019043 -0.816949,-3.337195 -2.257319,-3.754714 -0.269833,-0.07822 -0.7451,-0.09144 -3.2860167,-0.09144 -3.274168,0 -3.2241067,-0.0048 -3.9472241,0.378275 -0.6408998,0.339518 -1.2322713,1.220722 -1.4345533,2.137632 -0.1553123,0.704004 -0.2444223,1.962709 -0.1467404,2.072749 0.018951,0.02135 2.5199222,0.03219 5.5577134,0.0241 l 5.5232571,-0.01472 z M 5.3792469,27.44683 C 4.9368022,27.21819 4.7152678,26.82991 4.7152678,26.283084 c 0,-0.410183 0.073225,-0.618971 0.3126571,-0.891493 0.6179961,-0.703403 1.7113665,-0.364426 1.9154336,0.593841 0.2160041,1.014322 -0.7260272,1.894491 -1.5641116,1.461398 z m 0.7008315,-0.705706 c 0.05701,-0.03437 0.1366638,-0.15149 0.1770089,-0.260266 0.063579,-0.171416 0.063579,-0.224132 0,-0.395548 -0.1668589,-0.449873 -0.6827251,-0.436566 -0.8513227,0.02196 -0.1612664,0.438588 0.2917994,0.864469 0.6743138,0.633854 z m 2.122949,0.706164 C 7.5067246,27.089013 7.3083518,26.085232 7.8099814,25.458445 8.4220081,24.693718 9.4949713,24.953912 9.750002,25.9289 c 0.1264645,0.483477 0.036828,0.894732 -0.2715063,1.245677 -0.3225235,0.367096 -0.866137,0.483327 -1.2754683,0.272711 z m 0.7008315,-0.706164 c 0.05701,-0.03437 0.1366637,-0.15149 0.1770088,-0.260266 0.1306691,-0.352301 -0.081181,-0.718306 -0.4157672,-0.718306 -0.2022117,0 -0.3340016,0.102308 -0.4157671,0.322758 -0.063424,0.171 -0.063487,0.224379 -4.641e-4,0.394297 0.04009,0.108087 0.1154867,0.224416 0.1675487,0.258507 0.1230536,0.08058 0.3563895,0.08202 0.4874409,0.003 z m 2.1200841,0.705285 c -0.114528,-0.0586 -0.292558,-0.217528 -0.395624,-0.353171 -0.7976503,-1.049771 0.281478,-2.554845 1.386885,-1.934306 0.609373,0.342081 0.802409,1.184538 0.420318,1.834371 -0.297657,0.506234 -0.918362,0.705475 -1.411579,0.453106 z m 0.762121,-0.759171 c 0.173313,-0.153576 0.219637,-0.404395 0.116274,-0.629566 -0.231951,-0.50529 -0.849859,-0.3414 -0.849859,0.225412 0,0.451949 0.419087,0.682836 0.733585,0.404154 z m -0.514956,-4.409362 c 0.03078,-1.00514 0.163533,-1.640904 0.477452,-2.28655 0.0972,-0.19991 0.176723,-0.37559 0.176723,-0.3904 0,-0.01481 -0.404782,-0.02693 -0.899517,-0.02693 h -0.899517 l -0.1914891,0.448236 -0.1914886,0.448236 -0.3481252,0.149253 c -0.1914688,0.08209 -0.3717884,0.175911 -0.4007102,0.208491 -0.035886,0.04043 0.030121,0.167516 0.2078511,0.400198 0.3058465,0.400411 0.3527709,0.547905 0.2374116,0.74624 C 9.3004403,22.214077 9.0756407,22.171665 8.7871255,21.851536 8.5537255,21.592561 8.5425367,21.587164 8.4273833,21.678025 8.2659411,21.80541 8.1944949,21.796367 8.0466693,21.629839 7.8756881,21.437226 7.8870841,21.327706 8.1204255,20.921006 L 8.3202017,20.572809 7.9459852,20.248311 c -0.373443,-0.323827 -0.3742836,-0.324197 -0.4066531,-0.17891 -0.018103,0.08126 -0.13386,0.226122 -0.2619621,0.32784 -0.126239,0.100239 -0.2295255,0.206645 -0.2295255,0.236458 0,0.02981 0.05007,0.260021 0.1112665,0.511573 l 0.1112665,0.457368 -0.103582,0.156877 C 7.0425536,21.947685 6.879674,21.986072 6.7165128,21.865639 6.6227916,21.796461 6.5701363,21.652872 6.4762737,21.210513 6.373514,20.726223 6.3112494,20.568419 6.0473504,20.12345 5.7717515,19.658753 5.7201489,19.600924 5.5662779,19.584331 c -0.094798,-0.01022 -0.1640227,0.0028 -0.1538336,0.02892 0.010189,0.02613 0.1183758,0.274694 0.240415,0.55237 0.2716245,0.618028 0.4077222,1.317442 0.4425119,2.274096 0.013826,0.38019 0.025856,0.697761 0.026733,0.705714 8.769e-4,0.008 1.1536845,0.01446 2.5617947,0.01446 H 11.244099 Z M -3.4634767,22.171213 c 0.3172115,-0.09843 0.5934492,-0.196623 0.6138617,-0.218212 0.020412,-0.02159 -0.0817,-0.517605 -0.2269168,-1.102257 -0.2948233,-1.186979 -0.3018344,-1.027394 0.072117,-1.6415 0.4199205,-0.689596 0.5818194,-1.484127 0.5379965,-2.640258 -0.032383,-0.854312 -0.097046,-1.21531 -0.2446451,-1.365785 -0.090548,-0.09231 -0.2092382,-0.06235 -2.1879149,0.552388 -1.1506951,0.357498 -2.1441621,0.672263 -2.2077045,0.699478 -0.1964618,0.08414 -0.1909383,0.274459 0.025273,0.870781 0.4661596,1.285693 1.2762479,2.293488 2.1342443,2.65512 0.1592667,0.06713 0.3092525,0.165688 0.3333018,0.219022 0.024049,0.05333 0.1546434,0.558943 0.2902093,1.123576 0.1355658,0.564633 0.2547962,1.026606 0.2649564,1.026606 0.01016,0 0.2780097,-0.08053 0.5952213,-0.178959 z m -1.425569,-2.5808 c -0.7087784,-0.322005 -1.4740959,-1.27597 -1.8225211,-2.271767 -0.1183227,-0.338165 -0.072512,-0.533384 0.1477482,-0.629614 0.2398455,-0.104787 3.3291815,-1.047945 3.4325669,-1.047945 0.1254926,0 0.2457425,0.152004 0.2915079,0.368486 0.06431,0.304202 0.035189,1.525956 -0.045742,1.919072 -0.159255,0.773572 -0.5486827,1.432557 -0.9767305,1.652814 -0.2567497,0.132113 -0.74634,0.136382 -1.0268293,0.009 z m 0.8214883,-0.758884 c 0.1875782,-0.128866 0.405724,-0.565234 0.5117002,-1.023579 0.098564,-0.426287 0.1087057,-1.323909 0.014525,-1.285538 -0.035297,0.01438 -0.6004188,0.191222 -1.2558257,0.392982 l -1.1916488,0.366837 0.1364565,0.282435 c 0.1922959,0.39801 0.6997792,1.002731 1.0093564,1.202758 0.3034031,0.196036 0.5533214,0.216697 0.7754365,0.06411 z"
         id="path138" /></g></g></svg>
